<svg xmlns="http://www.w3.org/2000/svg" xmlns:xlink="http://www.w3.org/1999/xlink" width="315.906" height="227.733" viewBox="0 0 315.906 227.733">
  <defs>
    <linearGradient id="linear-gradient" x1="0.5" y1="1.001" x2="0.5" gradientUnits="objectBoundingBox">
      <stop offset="0" stop-color="gray" stop-opacity="0.251"/>
      <stop offset="0.54" stop-color="gray" stop-opacity="0.122"/>
      <stop offset="1" stop-color="gray" stop-opacity="0.102"/>
    </linearGradient>
  </defs>
  <g id="undraw_fatherhood_7i19" transform="translate(0.01 0.003)">
    <path id="Path_2082" data-name="Path 2082" d="M63.3,484.53c5,21.365,15.581,39.834,32.3,48.8,34.758,18.6,113.139,9.007,171.635-2.016a133.951,133.951,0,0,0,76.173-43.543Z" transform="translate(-59.895 -360.724)" fill="#9486fb" opacity="0.1"/>
    <path id="Path_2083" data-name="Path 2083" d="M390.042,77.8h-32.1a2.773,2.773,0,0,1,0-5.546h5.549a2.776,2.776,0,0,1,0-5.549h-3.962a2.776,2.776,0,0,1,0-5.549h16.753a44.324,44.324,0,0,0-13.07-3.6c-45.68-5.865-61.989-1.984-67.742,2.016a63.971,63.971,0,0,1-23.479,10.291c-28.184,5.814-80.892,12.811-128.665-2.24-23.744-7.487-41.389,5.16-51.968,26.284H395.614a49.577,49.577,0,0,0-3.769-16.77A2.753,2.753,0,0,1,390.042,77.8Z" transform="translate(-79.875 -54.56)" fill="#9486fb" opacity="0.1"/>
    <path id="Path_2084" data-name="Path 2084" d="M52.131,329.66a141.412,141.412,0,0,0,1.244,37.274l281.806,10.308a132.412,132.412,0,0,0,19.58-29.863Zm111.458,26.589H158.04a2.773,2.773,0,1,1,0,5.546h-32.1a2.773,2.773,0,1,1,0-5.546h5.549a2.776,2.776,0,0,1,0-5.549H127.53a2.776,2.776,0,0,1,0-5.549h32.1a2.776,2.776,0,0,1,0,5.549h3.962a2.776,2.776,0,0,1,0,5.549Z" transform="translate(-51.45 -250.448)" fill="#9486fb" opacity="0.1"/>
    <path id="Path_2085" data-name="Path 2085" d="M369.026,191.84,61.363,199.327A122.753,122.753,0,0,0,54,231.1H363.635a131.61,131.61,0,0,0,4.472-20.251A95.952,95.952,0,0,0,369.026,191.84ZM116.461,216.361h-5.549a2.773,2.773,0,1,1,0,5.546h-32.1a2.773,2.773,0,0,1,0-5.546h5.549a2.776,2.776,0,0,1,0-5.549H80.4a2.776,2.776,0,0,1,0-5.549h32.1a2.776,2.776,0,0,1,0,5.549h3.962a2.776,2.776,0,0,1,0,5.549Z" transform="translate(-53.273 -152.313)" fill="#9486fb" opacity="0.1"/>
    <path id="Path_2226" data-name="Path 2226" d="M100.444,0c27.071,0,51.641.58,70,1.538,18.653.973,30.442,2.361,30.442,3.9,0,3-44.97,5.436-100.444,5.436S0,8.439,0,5.436,44.97,0,100.444,0Z" transform="translate(61.841 216.858)" fill="#9486fb" opacity="0.1"/>
    <path id="Path_2086" data-name="Path 2086" d="M893.884,687.74s1.581,2.07-.731,5.183-4.218,5.759-3.455,7.708c0,0,3.487-5.8,6.335-5.883S897.005,691.23,893.884,687.74Z" transform="translate(-648.214 -505.421)" fill="#9486fb"/>
    <path id="Path_2087" data-name="Path 2087" d="M894.122,687.74a2.672,2.672,0,0,1,.323.648c2.77,3.257,4.244,6.294,1.584,6.369-2.482.072-5.457,4.506-6.168,5.626a2.23,2.23,0,0,0,.083.256s3.487-5.8,6.335-5.883S897.243,691.23,894.122,687.74Z" transform="translate(-648.451 -505.421)" opacity="0.1"/>
    <path id="Path_2088" data-name="Path 2088" d="M913.966,695.747c0,.729-.081,1.319-.181,1.319s-.184-.59-.184-1.319.1-.386.2-.386S913.966,695.018,913.966,695.747Z" transform="translate(-665.355 -510.79)" fill="#ffd037"/>
    <path id="Path_2089" data-name="Path 2089" d="M915.285,698.682c-.639.348-1.195.559-1.244.469s.432-.443,1.071-.792.386-.1.435,0S915.925,698.333,915.285,698.682Z" transform="translate(-665.667 -512.856)" fill="#ffd037"/>
    <path id="Path_2090" data-name="Path 2090" d="M866.858,687.74s-1.581,2.07.731,5.183,4.216,5.759,3.455,7.708c0,0-3.49-5.8-6.335-5.883S863.734,691.23,866.858,687.74Z" transform="translate(-629.544 -505.421)" fill="#9486fb"/>
    <path id="Path_2091" data-name="Path 2091" d="M866.842,687.74a2.553,2.553,0,0,0-.323.648c-2.77,3.257-4.247,6.294-1.584,6.369,2.479.072,5.471,4.506,6.168,5.626-.023.086-.052.17-.083.256,0,0-3.49-5.8-6.335-5.883S863.718,691.23,866.842,687.74Z" transform="translate(-629.528 -505.421)" opacity="0.1"/>
    <path id="Path_2092" data-name="Path 2092" d="M865.43,695.747c0,.729.081,1.319.181,1.319s.184-.59.184-1.319-.1-.386-.2-.386S865.43,695.018,865.43,695.747Z" transform="translate(-631.056 -510.79)" fill="#ffd037"/>
    <path id="Path_2093" data-name="Path 2093" d="M860.96,698.682c.639.348,1.2.559,1.247.469s-.432-.443-1.071-.792-.386-.1-.435,0S860.321,698.333,860.96,698.682Z" transform="translate(-627.596 -512.856)" fill="#ffd037"/>
    <path id="Path_2094" data-name="Path 2094" d="M867.18,725.678s4.423-.138,5.759-1.086,6.8-2.085,7.135-.576,6.646,7.57,1.653,7.61-11.6-.777-12.932-1.587S867.18,725.678,867.18,725.678Z" transform="translate(-632.302 -530.73)" fill="#a8a8a8"/>
    <path id="Path_2095" data-name="Path 2095" d="M881.82,737.019c-4.993.04-11.6-.777-12.932-1.587-1.014-.619-1.417-2.833-1.552-3.853h-.147s.288,3.565,1.61,4.377,7.939,1.627,12.932,1.587c1.44,0,1.941-.524,1.912-1.284C883.442,736.726,882.892,737.011,881.82,737.019Z" transform="translate(-632.309 -536.638)" opacity="0.2"/>
    <path id="Path_2096" data-name="Path 2096" d="M294.2,724.023a3.378,3.378,0,0,0,1.106-1.667,1.494,1.494,0,0,0-.772-1.7c-.708-.271-1.466.222-2.042.717a2.721,2.721,0,0,1-1.981.956,3.015,3.015,0,0,0,.933-2.825,1.186,1.186,0,0,0-.259-.576c-.395-.42-1.106-.242-1.578.089-1.5,1.054-1.915,3.09-1.923,4.918a9.243,9.243,0,0,1-.026-2.016,2.082,2.082,0,0,0-.76-1.794,2.3,2.3,0,0,0-1.152-.271,2.407,2.407,0,0,0-1.883.533,1.852,1.852,0,0,0,.075,2.3,7.468,7.468,0,0,0,1.947,1.561,4.319,4.319,0,0,1,1.394,1.327,1.663,1.663,0,0,1,.1.239H291.6A11.738,11.738,0,0,0,294.2,724.023Z" transform="translate(-216.686 -527.457)" fill="#9486fb"/>
    <path id="Path_2097" data-name="Path 2097" d="M200.307,644.561s-4.048-13.738.757-23.848a21.7,21.7,0,0,0,1.762-13.617,36.345,36.345,0,0,0-1.926-6.387" transform="translate(-156.316 -443.451)" fill="none" stroke="#535461" stroke-miterlimit="10" stroke-width="2"/>
    <path id="Path_2098" data-name="Path 2098" d="M201.586,571.2c0,1.684-3.046,6.568-3.046,6.568s-3.049-4.9-3.049-6.568a3.049,3.049,0,0,1,6.1,0Z" transform="translate(-154.021 -420.334)" fill="#9486fb"/>
    <path id="Path_2099" data-name="Path 2099" d="M219.007,599.435c-.913,1.414-6.127,3.856-6.127,3.856s.1-5.759,1.011-7.17a3.049,3.049,0,0,1,5.117,3.314Z" transform="translate(-166.404 -439.242)" fill="#9486fb"/>
    <path id="Path_2100" data-name="Path 2100" d="M215.506,651.976c-1.5.757-7.236.233-7.236.233s2.989-4.921,4.492-5.678a3.049,3.049,0,1,1,2.744,5.446Z" transform="translate(-163.121 -475.845)" fill="#9486fb"/>
    <path id="Path_2101" data-name="Path 2101" d="M205.852,694.136c-1.353,1-7.092,1.44-7.092,1.44s2.114-5.353,3.455-6.355a3.049,3.049,0,1,1,3.625,4.9Z" transform="translate(-156.35 -505.984)" fill="#9486fb"/>
    <path id="Path_2102" data-name="Path 2102" d="M188.218,612.337c1.206,1.172,6.833,2.39,6.833,2.39s-1.379-5.589-2.591-6.764a3.049,3.049,0,1,0-4.247,4.374Z" transform="translate(-148.14 -447.962)" fill="#9486fb"/>
    <path id="Path_2103" data-name="Path 2103" d="M175.421,660.116c1.5.757,7.236.233,7.236.233s-2.989-4.918-4.492-5.678a3.049,3.049,0,1,0-2.744,5.446Z" transform="translate(-138.536 -481.641)" fill="#9486fb"/>
    <path id="Path_2104" data-name="Path 2104" d="M172.59,710.047c1.353,1,7.089,1.44,7.089,1.44s-2.111-5.353-3.455-6.355a3.049,3.049,0,0,0-3.625,4.9Z" transform="translate(-136.927 -517.44)" fill="#9486fb"/>
    <path id="Path_2105" data-name="Path 2105" d="M201.586,571.2c0,1.684-3.046,6.568-3.046,6.568s-3.049-4.9-3.049-6.568a3.049,3.049,0,0,1,6.1,0Z" transform="translate(-154.021 -420.334)" fill="#9486fb"/>
    <path id="Path_2106" data-name="Path 2106" d="M219.007,599.435c-.913,1.414-6.127,3.856-6.127,3.856s.1-5.759,1.011-7.17a3.049,3.049,0,0,1,5.117,3.314Z" transform="translate(-166.404 -439.242)" fill="#9486fb"/>
    <path id="Path_2107" data-name="Path 2107" d="M215.506,651.976c-1.5.757-7.236.233-7.236.233s2.989-4.921,4.492-5.678a3.049,3.049,0,1,1,2.744,5.446Z" transform="translate(-163.121 -475.845)" fill="#9486fb"/>
    <path id="Path_2108" data-name="Path 2108" d="M205.852,694.136c-1.353,1-7.092,1.44-7.092,1.44s2.114-5.353,3.455-6.355a3.049,3.049,0,1,1,3.625,4.9Z" transform="translate(-156.35 -505.984)" fill="#9486fb"/>
    <path id="Path_2109" data-name="Path 2109" d="M188.218,612.337c1.206,1.172,6.833,2.39,6.833,2.39s-1.379-5.589-2.591-6.764a3.049,3.049,0,1,0-4.247,4.374Z" transform="translate(-148.14 -447.962)" fill="#9486fb"/>
    <path id="Path_2110" data-name="Path 2110" d="M175.421,660.116c1.5.757,7.236.233,7.236.233s-2.989-4.918-4.492-5.678a3.049,3.049,0,1,0-2.744,5.446Z" transform="translate(-138.536 -481.641)" fill="#9486fb"/>
    <path id="Path_2111" data-name="Path 2111" d="M172.59,710.047c1.353,1,7.089,1.44,7.089,1.44s-2.111-5.353-3.455-6.355a3.049,3.049,0,0,0-3.625,4.9Z" transform="translate(-136.927 -517.44)" fill="#9486fb"/>
    <path id="Path_2112" data-name="Path 2112" d="M171,738.114s4.93-.979,6.243-2.283,7.227-3.588,7.884-1.958,8.869,7.176,3.283,8.155-13.139,1.3-14.78.651S171,738.114,171,738.114Z" transform="translate(-136.583 -537.868)" fill="#a8a8a8"/>
    <path id="Path_2113" data-name="Path 2113" d="M188.418,753.21c-5.583.979-13.139,1.3-14.78.654-1.25-.5-2.119-2.879-2.462-3.994l-.176.037s.988,3.913,2.629,4.564,9.2.325,14.78-.651c1.612-.288,2.073-.947,1.9-1.785C190.18,752.58,189.618,753,188.418,753.21Z" transform="translate(-136.583 -549.661)" opacity="0.2"/>
    <path id="Path_2114" data-name="Path 2114" d="M476.322,181.607c1.546-1.728.942-4.42.942-4.42s-7.3-18.6-8.106-18.8-2.839-4.9-2.839-4.9S446.862,135,446.163,135s-7.8-5.108-8.713-5.209a11.917,11.917,0,0,1-3.853-1.44c-1.52-.826-16.925.1-17.533.818s-3.455,1.227-3.455,1.227-5.776.305-6.588,1.327-6.787,1.564-6.787,1.564-2.94,1.094,1.051,4h0c-1.278.2-2.773.357-4.29.466-.38.026-.766.052-1.152.072h-.227a3.767,3.767,0,0,0-1.417-1.9,11.882,11.882,0,0,0-1.345-.625,10.735,10.735,0,0,1-1.993-1.368,65.3,65.3,0,0,0-9.422-6.243,4.512,4.512,0,0,0-1.679-.631c-1.235-.118-2.338.749-3.547,1.039-2.125.51-4.267-.786-6.453-.806a6.637,6.637,0,0,0-6.047,4.719,7.611,7.611,0,0,1-1.111,2.819c-.864,1-2.324,1.152-3.507,1.748a5.292,5.292,0,0,0-2.845,4.691v.023a2.715,2.715,0,0,0,.026.458,16,16,0,0,0,1.123,3.539,14.636,14.636,0,0,1,.806,3.714.185.185,0,0,1,0,.04c.017.21.032.42.04.633v.746c0,1.1-.037,2.209-.035,3.308v.677a3.881,3.881,0,0,0,.017.443V155a3.914,3.914,0,0,0,.035.409.724.724,0,0,0,.014.176,2.965,2.965,0,0,0,.049.392l.026.184c.02.13.043.259.066.389l.035.179c.029.138.063.288.1.415.014.049.023.1.035.144q.078.288.173.553a8.114,8.114,0,0,0,5.373,5.065,4.989,4.989,0,0,0,1.425.179,2.962,2.962,0,0,0,2.2-.878c.127.144.251.288.383.432a17.257,17.257,0,0,0,28.026-3.743c.3-.066.6-.127.9-.184.524-.1,1.051-.19,1.581-.288l.51-.081h0l.2-.035c2.591-.409,5.108-.682,6.911-.864l-7.124.884s-1.728,8.3-2.226,9.214,1.728,2.45,1.728,2.45,1.926,2.35,1.926,3.067,2.229,2.759,2.836,3.882a1.727,1.727,0,0,0,.288.389,4.074,4.074,0,0,0-1.227.746c-1.408,1.333-.939,3.671-1.584,5.5a9.333,9.333,0,0,1-2.059,2.992,4.083,4.083,0,0,0-.726,1,2.47,2.47,0,0,0-.193.772h0a3.78,3.78,0,0,0-.017.443v.052a1.672,1.672,0,0,0,.023.34v.147c.141,1.2.55,2.367.674,3.571a34.326,34.326,0,0,0,.222,3.588,5.349,5.349,0,0,0,.4,1.183l-4.123,4.607s-.026.227-.035.6c-3.438,2.854-8.754,8.238-6.856,12.986q.311.78.576,1.494c-1.4.89-1.857,1.947.236,3,.331.167.651.311.965.441,1.074,3.153,1.494,4.031,3.294,1.708.193-.253.418-.576.662-.924a7.007,7.007,0,0,0,4-1.224s7.092-.409,8.926.717c.919.576,3.078.691,4.99.677a52.263,52.263,0,0,0,.288,6.168s-.305,8.684.507,10.524a24.188,24.188,0,0,1,1.261,5.007s-1.362,3.064-.553,4.7-.708,3.985-.708,3.985v6.027l.576-.04c-.043.406-.1.832-.17,1.238a3.61,3.61,0,0,1-.8,2.059c-1.014.729-1.114,4.607-1.114,4.607s-1.621,4.7-1.319,5.52-1.923,2.45-1.417,3.677,1.543,8.99,2.445,11.23S408,288.089,408,288.089l.809,5.822s.812,5.926.2,6.335-4.1,3.372-1.7,5.108c.187.135.377.259.576.377a6.225,6.225,0,0,1-.02.806c-.046.458-.161.824-.418.864-.714.1-2.134.818-2.433.513s-2.016.772-3.743,1.123l-.239.037L398.8,308.5a15.785,15.785,0,0,0-10.136-.374,3.879,3.879,0,0,0-2.416,1.469,3.177,3.177,0,0,0-.219,2.718c1.083,3.611,8.463,4.855,8.463,4.855s2.557.527,5.629,1.224h-.308a3.389,3.389,0,1,0,1.152.21,68.777,68.777,0,0,1,8.837,2.445,27.043,27.043,0,0,0,3.55,1.065,3.369,3.369,0,0,0,6.271,1.411c4.7.982,9.231,1.814,9.231,1.814l7.564.124h.052a3.371,3.371,0,1,0,.046,0l11.452.187a3.378,3.378,0,1,0,6.519.107l10.1.164L466.6,323.7a1.792,1.792,0,0,0,.2-.694c.06-.729-.317-1.834-2.9-2.3-.19-.035-5.454.049-10.1.127V319s-.13-1-.21-2.188c-.023-.348-.043-.711-.052-1.068a2.771,2.771,0,0,0,.864.394c1.926.308,4.561-5.313,4.561-5.313a29.269,29.269,0,0,1,.608-5.721c.608-2.554,1.728-11.138,1.728-11.138l2.436-10.317s1.008-21.049.5-21.866.61-2.249.61-2.249.809-4.495-.406-6.027.708-3.067.708-3.067.507-5.313-.913-7.354a2.447,2.447,0,0,1,.665-3.473l.507-8.276c2.128-2.145,4.051-14.916,4.155-17.674a11.351,11.351,0,0,1,1.014-4.5,11.9,11.9,0,0,0,1.621-3.576,21.2,21.2,0,0,1,1.728-4.391l2.635-9.81a15.279,15.279,0,0,0,.086-8.967C476.544,182.131,476.434,181.863,476.322,181.607Zm-47.6.576c1.621,1.022,1.114,1.327,1.621,1.941s.1.51-.305,1.532-.1.717.1,1.84.1,1.123.1,1.123l.507.072-.705,4.742a5.2,5.2,0,0,0-1.918,3.677c-.68-.887-1.365-1.808-1.978-2.666a3.932,3.932,0,0,0,.176-1.555,32.625,32.625,0,0,1,.965-5.079,12.833,12.833,0,0,0-.164-5.215,7.923,7.923,0,0,0-.677-1.851c.656.438,1.489.956,2.275,1.451Zm1.823,100.127s1.281-.864,2.525-1.65c.418,3.032.812,6.185,1.091,9.036-.446-.991-.757-1.664-.757-1.664a3.426,3.426,0,0,1-.783-1.941c-.049-1.111-2.076-3.769-2.076-3.769Zm-7.6-105.019a2.454,2.454,0,0,1,1.083.844c-.357-.288-.717-.576-1.086-.847Zm-18.546,37.8c-1.169.369-5.131.314-7.487.176.881-1.506,1.756-3.038,2.534-4.411a9.363,9.363,0,0,0,1.4.251l7.714-6.775a13.286,13.286,0,0,0,8.955-.058l.21.328c.089.144.184.288.288.449l-.193-.314s-2.977,1.774-2.675,2.592-.4,2.859-1.517,5.048c-.288.547-.538,1.088-.78,1.633A78.611,78.611,0,0,0,404.4,215.092Zm14.636,94.4-.043-.809c.49-.107.812-.2.812-.2a31.867,31.867,0,0,0-.507-3.576c-.305-1.227-.147-.818,1.039-1.728s0-11.23,0-11.23.576-.717,1.489,1.123a8.308,8.308,0,0,0,2.134,3.064c.305.1-1.218,2.148,0,4.089a11.748,11.748,0,0,1,1.517,4.086s-.809,3.245.406,4.688a1.784,1.784,0,0,0,.576.394v.821a10.054,10.054,0,0,1-.026,1.1.406.406,0,0,1-.648.253c-.314-.2-2.3.253-2.168,1.535a9.426,9.426,0,0,1-1.589,1.489l-2.761-.714Z" transform="translate(-267.779 -106.173)" fill="url(#linear-gradient)"/>
    <path id="Path_2115" data-name="Path 2115" d="M490.3,390.169s-.965,7.9,6.686,8.713l1.152-5.471-2.41-3.242L492.279,389Z" transform="translate(-363.917 -292.702)" fill="#9486fb"/>
    <path id="Path_2116" data-name="Path 2116" d="M492.279,389l-1.975,1.166s-.965,7.9,6.686,8.713" transform="translate(-363.917 -292.702)" opacity="0.1"/>
    <path id="Path_2117" data-name="Path 2117" d="M484.672,186.535s-5.163.317-10.34,1.175q-.795.135-1.581.288c-.305.058-.6.118-.9.184a21.439,21.439,0,0,0-6.623,2.211c-1.728,1.109-2.3-1.877-2.358-6.027-.023-1.46.026-3.061.1-4.679.1-1.872.248-3.766.4-5.471.343-3.778.737-6.715.737-6.715s1.808,0,4.224-.083l.777-.029c.757-.029,1.561-.069,2.37-.118.383-.02.769-.043,1.152-.072,1.532-.109,3.044-.265,4.319-.466a9.432,9.432,0,0,0,3.061-.864C482.748,164.24,484.672,186.535,484.672,186.535Z" transform="translate(-344.404 -133.76)" fill="#f8bdc5"/>
    <path id="Path_2118" data-name="Path 2118" d="M611.223,334.7l-1.008,6.689s-2.2,2.735-1.909,4.256,2.822,68.709,2.822,68.709,4.967,28.374,3.242,32.022-.1,12.163-.1,12.163l10.337-1.621,3.455-124.044Z" transform="translate(-447.95 -252.734)" fill="#474463"/>
    <path id="Path_2119" data-name="Path 2119" d="M611.223,334.7l-1.008,6.689s-2.2,2.735-1.909,4.256,2.822,68.709,2.822,68.709,4.967,28.374,3.242,32.022-.1,12.163-.1,12.163l10.337-1.621,3.455-124.044Z" transform="translate(-447.95 -252.734)" opacity="0.1"/>
    <path id="Path_2120" data-name="Path 2120" d="M647.67,755.973a8.625,8.625,0,0,0-.21,3.507c.081,1.172.21,2.168.21,2.168v6.891s-11.046-3.85-17.127-7.9c-2.508-1.673-3.222-3.228-3.084-4.472a3.642,3.642,0,0,1,3.084-2.925c.91,0,3.784-1.587,6.139-2.989,1.851-1.1,3.389-2.079,3.389-2.079S648.278,754.96,647.67,755.973Z" transform="translate(-461.596 -548.451)" fill="#575988"/>
    <path id="Path_2121" data-name="Path 2121" d="M670.518,755.973a8.623,8.623,0,0,0-.21,3.507c-2.456-1.152-10.061-8.529-10.778-9.232,1.852-1.1,3.389-2.079,3.389-2.079S671.126,754.96,670.518,755.973Z" transform="translate(-484.444 -548.451)" opacity="0.1"/>
    <path id="Path_2122" data-name="Path 2122" d="M656.331,322.845l-2.635,9.73a21.111,21.111,0,0,0-1.728,4.357,11.831,11.831,0,0,1-1.621,3.547,11.229,11.229,0,0,0-1.014,4.457c-.1,2.738-2.016,15.405-4.155,17.533l-.507,8.209a2.44,2.44,0,0,0-.608,3.455c1.408,2.039.913,7.3.913,7.3s-1.926,1.52-.708,3.041.4,5.981.4,5.981-1.114,1.417-.608,2.229-.5,21.688-.5,21.688L641.128,424.6s-1.117,8.515-1.728,11.048a28.545,28.545,0,0,0-.608,5.673s-2.635,5.575-4.561,5.272-11.247-9.427-11.247-9.427l1.316-30.81s1.114-13.073.406-15.607-1.215-15.2-1.215-15.2l-1.42-19.963-14.173-22.3s-1.028-6.487,1.909-8.411l.533-3.5.481-3.185,16.825-1.826,25.739-6.686a8.3,8.3,0,0,1,3.023,4.279A14.947,14.947,0,0,1,656.331,322.845Z" transform="translate(-447.555 -236.222)" fill="#474463"/>
    <path id="Path_2123" data-name="Path 2123" d="M582.877,364.26s-11.958,14.685-11.452,10.582c.317-2.577-1.319-5.724-2.591-7.714-.752-1.183-1.374-1.958-1.374-1.958s7.3-13.375,7.7-11.552a14.872,14.872,0,0,0,2.059,3.406C579.51,360.186,582.877,364.26,582.877,364.26Z" transform="translate(-418.885 -267.386)" fill="#ffc1c8"/>
    <path id="Path_2124" data-name="Path 2124" d="M647.67,786.886v1.44s-11.046-3.85-17.127-7.9c-2.508-1.673-3.222-3.228-3.084-4.472,3.357,1.7,9.6,4.938,11.495,6.4C640.561,783.586,644.713,785.547,647.67,786.886Z" transform="translate(-461.596 -568.232)" fill="#fff" opacity="0.3"/>
    <circle id="Ellipse_1151" data-name="Ellipse 1151" cx="3.378" cy="3.378" r="3.378" transform="translate(180.097 217.367)" fill="#474463"/>
    <circle id="Ellipse_1152" data-name="Ellipse 1152" cx="3.378" cy="3.378" r="3.378" transform="translate(145.595 212.625)" fill="#474463"/>
    <path id="Path_2125" data-name="Path 2125" d="M542.55,770.806a1.783,1.783,0,0,1-.2.688l-2.016,2.2-28.172-.452-7.576-.124s-15.946-2.9-19.053-4.256-15.322-3.83-15.322-3.83-7.377-1.238-8.46-4.817a3.1,3.1,0,0,1,.219-2.7,3.887,3.887,0,0,1,2.416-1.46,15.923,15.923,0,0,1,10.136.374l47.223,12.148.731.187s16.833-.314,17.173-.253C542.233,768.986,542.611,770.083,542.55,770.806Z" transform="translate(-343.475 -553.602)" fill="#9486fb"/>
    <path id="Path_2126" data-name="Path 2126" d="M542.55,776.029c-2.833-.369-7.774-.913-9.047-.389,0,0-8.987-1.111-21.351,2.822l-7.564-.124s-15.946-2.9-19.053-4.256-15.322-3.83-15.322-3.83-7.377-1.238-8.46-4.817a3.1,3.1,0,0,1,.219-2.7c.5,1.469,1.474,3.6,3.023,4.192,2.433.936,12.433,2.842,12.433,2.842l19.793,4.846s11.429,2.479,15.877.864a51.091,51.091,0,0,1,8.638-1.7l.731.187s16.833-.314,17.173-.253C542.233,774.209,542.611,775.306,542.55,776.029Z" transform="translate(-343.475 -558.825)" fill="#fff" opacity="0.3"/>
    <path id="Path_2127" data-name="Path 2127" d="M597.146,768.756a9.347,9.347,0,0,1-.158,1.264s-11.2.4-17.023-.464a4.3,4.3,0,0,1-2.972-1.371,2.105,2.105,0,0,1-.21-2.016,3.169,3.169,0,0,1,.245-.541c.435-.76,1.1-1.3,1.469-1.227,1.014.2,2.753-1.875,2.753-1.875-.138-1.27,1.857-1.728,2.168-1.52a.406.406,0,0,0,.648-.253c.02-.1.026-.553.026-1.088,0-.893-.026-2.016-.026-2.016l11.253,1.368.446,2.151c.409,1.918.979,4.552,1.224,5.454A6.509,6.509,0,0,1,597.146,768.756Z" transform="translate(-425.405 -555.201)" fill="#474463"/>
    <path id="Path_2128" data-name="Path 2128" d="M598.073,794.64a9.356,9.356,0,0,1-.158,1.264s-11.2.4-17.023-.464a4.3,4.3,0,0,1-2.972-1.371,18.354,18.354,0,0,1,4.642.155C584.278,794.652,594.543,794.652,598.073,794.64Z" transform="translate(-426.333 -581.085)" opacity="0.1"/>
    <path id="Path_2129" data-name="Path 2129" d="M516.092,757.1a.576.576,0,0,1-.245.541c-1.417,1.094-8.215-.1-8.215-.1s-13.89-.864-15.966-2.281a1.465,1.465,0,0,1-.458-.481c-.864-1.561,2.263-4.181,2.534-4.181s4.005-.51,4.256-.559c1.728-.348,3.455-1.42,3.743-1.114s1.728-.406,2.43-.507c.256-.037.374-.4.418-.864a9.6,9.6,0,0,0-.063-1.88l11.095,2.986.1,1.768.32,5.886.04.723A.264.264,0,0,1,516.092,757.1Z" transform="translate(-364.482 -546.678)" fill="#474463"/>
    <path id="Path_2130" data-name="Path 2130" d="M508.044,780.061s-13.89-.864-15.966-2.281a1.465,1.465,0,0,1-.458-.481c2.813.23,7.5.619,8.35.835,1.218.288,8.062.708,8.062.708h8.417l.04.723C516.855,781.6,508.044,780.061,508.044,780.061Z" transform="translate(-364.882 -569.193)" opacity="0.1"/>
    <circle id="Ellipse_1153" data-name="Ellipse 1153" cx="3.378" cy="3.378" r="3.378" transform="translate(128.681 212.625)" fill="#474463"/>
    <circle id="Ellipse_1154" data-name="Ellipse 1154" cx="3.378" cy="3.378" r="3.378" transform="translate(165.365 219.636)" fill="#474463"/>
    <path id="Path_2131" data-name="Path 2131" d="M480.375,393.2s-.639,1.152-1.6,2.862c-2.3,4.066-6.447,11.273-8.229,13.554-2.534,3.242-2.329.2-5.068-6.585-2.033-5.051,4.224-10.83,7.57-13.456,1.152-.913,1.958-1.44,1.958-1.44Z" transform="translate(-345.984 -292.089)" fill="#f8bdc5"/>
    <path id="Path_2132" data-name="Path 2132" d="M492.106,432.83s-8.411.708-10.032,1.215-8.612.2-9.214,0-12.569,2.534-7.095,5.269,8.926,0,8.926,0,7.095-.406,8.926.711,8.512.507,8.512.507Z" transform="translate(-345.454 -323.911)" fill="#ffc1c8"/>
    <path id="Path_2133" data-name="Path 2133" d="M473.565,184.579c1.037,2.652.389,4.961-.832,7.331-3.058.576-5.935,1.368-7.535,2.4-4.561,2.94-1.114-22.9-1.114-22.9s2.206,0,5-.112C468.238,175.154,471.446,179.165,473.565,184.579Z" transform="translate(-344.386 -137.68)" opacity="0.1"/>
    <path id="Path_2134" data-name="Path 2134" d="M415.547,172.655a17.277,17.277,0,1,1-1.728-7.553,17.277,17.277,0,0,1,1.728,7.553Z" transform="translate(-286.108 -126.332)" fill="#f8bdc5"/>
    <path id="Path_2135" data-name="Path 2135" d="M662.92,313.929a3.956,3.956,0,0,1-2.3,1.6c-3.953,1.114-31.824,7.8-33.646,7.4-1.61-.357-8.517-1.35-10.11-1.578l.481-3.185,16.825-1.826L659.9,309.65A8.314,8.314,0,0,1,662.92,313.929Z" transform="translate(-454.06 -236.2)" opacity="0.1"/>
    <path id="Path_2136" data-name="Path 2136" d="M514.251,186.49a97.143,97.143,0,0,0-9.833,1.094.677.677,0,0,0-.017-.452l6.738-.832s-.985-15.837-4.607-19.632a9.432,9.432,0,0,0,3.061-.864C512.327,164.195,514.251,186.49,514.251,186.49Z" transform="translate(-373.982 -133.715)" opacity="0.1"/>
    <path id="Path_2137" data-name="Path 2137" d="M499.787,142.356s5.981-.538,6.79-1.552,6.588-1.316,6.588-1.316,2.836-.507,3.455-1.218,16.01-1.621,17.53-.809A12.177,12.177,0,0,0,538,138.88c.913.1,8,5.166,8.713,5.166s20.156,18.345,20.156,18.345,2.016,4.662,2.839,4.863S577.82,185.9,577.82,185.9s1.014,4.457-2.937,5.575-31.824,7.8-33.646,7.4-10.438-1.621-10.438-1.621.1,0-.1-1.114-.507-.812-.1-1.826.812-.913.305-1.52,0-.913-1.621-1.926a20.415,20.415,0,0,1-3.547-2.43c-.092-.3-1.52-2.332-2.229-2.433s-20.574-5.675-20.574-5.675l-4.662-1.52s-2.229-1.52-1.728-2.43,2.226-9.142,2.226-9.142l7.127-.878s-1.062-17.161-5.053-20.041S499.787,142.356,499.787,142.356Z" transform="translate(-368.332 -113.364)" fill="#9486fb"/>
    <path id="Path_2138" data-name="Path 2138" d="M500.078,393.2s-.639,1.152-1.6,2.862c-.15-5.287-3.847-6.312-5.727-6.487,1.152-.913,1.958-1.44,1.958-1.44Z" transform="translate(-365.687 -292.089)" opacity="0.1"/>
    <path id="Path_2139" data-name="Path 2139" d="M493.445,272.34l.49,2.735s1.926,2.332,1.926,3.041,2.229,2.735,2.839,3.85,2.735,1.319,1.923,3.245-5.471,16.62-5.471,16.62L490.39,307.1s7.9-.711,6.686,8.713l10.236-8.926,8.016-14.584s-7.8-14.795-8.106-16.01S493.445,272.34,493.445,272.34Z" transform="translate(-364.006 -209.633)" fill="#9486fb"/>
    <path id="Path_2140" data-name="Path 2140" d="M583.31,277.327s6.485-4.561,6.485-5.068S583.31,277.327,583.31,277.327Z" transform="translate(-430.171 -209.553)" opacity="0.1"/>
    <path id="Path_2141" data-name="Path 2141" d="M621,302.052s3.455-.812,3.743-2.635S621,302.052,621,302.052Z" transform="translate(-457.008 -228.602)" opacity="0.1"/>
    <path id="Path_2142" data-name="Path 2142" d="M630.82,318.756s4.866-2.41,4.662-2.828S630.82,318.756,630.82,318.756Z" transform="translate(-464 -240.644)" opacity="0.1"/>
    <path id="Path_2143" data-name="Path 2143" d="M717.492,272.23s-2.016,1.316-1.417,2.548S717.492,272.23,717.492,272.23Z" transform="translate(-524.628 -209.555)" opacity="0.1"/>
    <path id="Path_2144" data-name="Path 2144" d="M730.54,274.1s-5.742,5.471-4.443,5.575S730.54,274.1,730.54,274.1Z" transform="translate(-531.707 -210.887)" opacity="0.1"/>
    <path id="Path_2145" data-name="Path 2145" d="M696.64,568.68s7.4,1.42,7.6,1.926S696.64,568.68,696.64,568.68Z" transform="translate(-510.868 -420.644)" opacity="0.1"/>
    <path id="Path_2146" data-name="Path 2146" d="M705.79,585.57s3.951,2.433,4.051,3.141S705.79,585.57,705.79,585.57Z" transform="translate(-517.383 -432.671)" opacity="0.1"/>
    <path id="Path_2147" data-name="Path 2147" d="M702.62,604.58s.608,2.735,1.621,3.141S702.62,604.58,702.62,604.58Z" transform="translate(-515.126 -446.207)" opacity="0.1"/>
    <path id="Path_2148" data-name="Path 2148" d="M413.63,164.963a.2.2,0,0,1-.014.089,2.551,2.551,0,0,1-1.353,2.177,2.154,2.154,0,0,1-1.535-.141c-1.44-.631-2.721-2.145-4.259-1.779a2.55,2.55,0,0,0-1.607,1.411,7.083,7.083,0,0,0-.576,1.546,5.53,5.53,0,0,0-.078,3.429,3.492,3.492,0,0,0,.259.507c.409.654.985,1.209,1.388,1.869.5.824.631,2.059-.15,2.623a1.581,1.581,0,0,1-1.342.187,7.983,7.983,0,0,1-1.638-.726,3.353,3.353,0,0,0-3.271-.248c-.334.207-.6.507-.921.726a3.323,3.323,0,0,1-2.226.464c-1.831-.187-2.517-1.348-3.916-2.246-1.025-.662-3.167-.944-3.778.409-.392.864.19,1.952-.193,2.833s-1.6,1.152-2.165,1.97c-.743,1.077-.052,2.635-.6,3.83a1.952,1.952,0,0,1-.331.507,17.328,17.328,0,0,1,24.5-24.475l.777-.029c.757-.029,1.561-.069,2.37-.118a6.6,6.6,0,0,1,.446,1.264A10.538,10.538,0,0,1,413.63,164.963Z" transform="translate(-285.902 -126.282)" opacity="0.1"/>
    <path id="Path_2149" data-name="Path 2149" d="M370.109,159.565c-.394.864.187,1.952-.193,2.83s-1.607,1.152-2.165,1.97c-.746,1.08-.055,2.638-.6,3.83-.622,1.362-2.5,1.575-3.939,1.178a8.062,8.062,0,0,1-5.373-5.025c-.976-2.779-.346-5.837-.6-8.771a14.55,14.55,0,0,0-.806-3.683,15.626,15.626,0,0,1-1.123-3.51,5.218,5.218,0,0,1,2.816-5.128c1.186-.576,2.646-.74,3.51-1.728a7.584,7.584,0,0,0,1.111-2.8,6.636,6.636,0,0,1,6.047-4.679c2.183.017,4.319,1.3,6.453.8,1.206-.288,2.3-1.152,3.547-1.028a4.5,4.5,0,0,1,1.679.625,65.416,65.416,0,0,1,9.419,6.191,10.6,10.6,0,0,0,2,1.356,12.383,12.383,0,0,1,1.345.619,4.336,4.336,0,0,1,1.682,2.738,10.461,10.461,0,0,1,.213,3.922,2.61,2.61,0,0,1-1.368,2.269,2.151,2.151,0,0,1-1.538-.147c-1.44-.625-2.718-2.139-4.256-1.777-1.255.288-1.86,1.71-2.188,2.957a5.5,5.5,0,0,0-.078,3.432,19.936,19.936,0,0,0,1.644,2.373c.492.826.633,2.062-.15,2.623-.864.625-2.036-.04-2.983-.536a3.355,3.355,0,0,0-3.268-.251c-.331.207-.6.507-.921.729a3.352,3.352,0,0,1-2.223.461c-1.834-.187-2.52-1.348-3.916-2.246C372.858,158.491,370.722,158.209,370.109,159.565Z" transform="translate(-267.809 -110.991)" fill="#474463"/>
    <path id="Path_2150" data-name="Path 2150" d="M577.231,357c-.078.432-.671.481-.792.9-1.152,4.063-3.686,7.717-7.6,9.214-.752-1.183-1.374-1.958-1.374-1.958s7.3-13.375,7.7-11.552A15.07,15.07,0,0,0,577.231,357Z" transform="translate(-418.892 -267.379)" opacity="0.1"/>
    <path id="Path_2151" data-name="Path 2151" d="M535.956,323.025a13.329,13.329,0,1,1-3.9-9.472A13.378,13.378,0,0,1,535.956,323.025Z" transform="translate(-377.4 -236.2)" fill="#ffc1c8"/>
    <path id="Path_2152" data-name="Path 2152" d="M549,748.7l.1,1.768c-1.172.259-3.4.6-4.7-.2-1.679-1.028-4.158-1.279-6.43-2.678a9.6,9.6,0,0,0-.063-1.88Z" transform="translate(-397.843 -546.699)" opacity="0.1"/>
    <path id="Path_2153" data-name="Path 2153" d="M614.193,761.16c-.078.394-.15.636-.15.636s-8.941-.916-11.518-2.151c0-.893-.026-2.016-.026-2.016L613.753,759Z" transform="translate(-443.835 -555.187)" opacity="0.1"/>
    <path id="Path_2154" data-name="Path 2154" d="M562.968,591.771c-.608,1.621-.913,1.926-.3,2.735s.3,5.068-.665,5.471-4.607,2.836-4.607,2.836,2.016,2.635,2.076,3.743a3.392,3.392,0,0,0,.783,1.926s3.121,6.689,3.743,8.817,1.192,5.471,1.192,5.471-1.091,3.041-.337,4.766a7.433,7.433,0,0,1,0,4.256s-10.887-1.114-12.094-2.545-.4-4.65-.4-4.65a11.641,11.641,0,0,0-1.52-4.054c-1.218-1.926.288-3.951,0-4.054a8.565,8.565,0,0,1-2.134-3.038c-.916-1.823-1.486-1.117-1.486-1.117s1.186,10.236,0,11.149-1.348.507-1.042,1.728a31.326,31.326,0,0,1,.507,3.547s-3.648,1.114-5.471,0-4.567-1.319-6.977-3.041,1.091-4.662,1.7-5.068-.2-6.283-.2-6.283l-.812-5.776s2.735.608,1.837-1.621-1.938-9.931-2.445-11.146,1.728-2.839,1.42-3.648,1.316-5.471,1.316-5.471.1-3.85,1.114-4.573a3.574,3.574,0,0,0,.8-2.042,25.379,25.379,0,0,0,.314-3.317s23.205-1.621,26.954.608c1.687,1,1.569,2.848.864,4.717a36.9,36.9,0,0,1-3.084,5.451C563.172,589.1,563.575,590.15,562.968,591.771Z" transform="translate(-394.628 -426)" fill="#575988"/>
    <path id="Path_2155" data-name="Path 2155" d="M580.784,582.1c-2.879.809-6.715,2-7.34,2.681-1.014,1.117-4.46-6.283-4.46-6.283s.2,5.563-4.357,3.236c-3.948-2.016-10.32-1.751-11.967-1.641a25.368,25.368,0,0,0,.314-3.317s23.205-1.621,26.954.608C581.616,578.382,581.5,580.227,580.784,582.1Z" transform="translate(-408.346 -426)" opacity="0.1"/>
    <path id="Path_2156" data-name="Path 2156" d="M566.028,379.644s2.016-2.433,2.433-1.52,2.8,2.735,2.8,2.735.682,2.128,1.883,2.433,10.219,12.465,10.219,12.465l-3.245,6.585-2.635,16.013s.115,2.534-.6,3.455-3.455.708-2.186,1.823,3.093,2.128,4.106,7.2a47.106,47.106,0,0,0,2.229,8s-9.525,2.433-10.539,3.547-4.46-6.283-4.46-6.283.2,5.56-4.357,3.237-12.364-1.615-12.364-1.615v-5.989s1.52-2.332.711-3.953.553-4.662.553-4.662a23.87,23.87,0,0,0-1.264-4.964c-.812-1.823-.507-10.438-.507-10.438s-.616-5.575-.055-8.414a25.166,25.166,0,0,1,2.5-7.049c1.114-2.171,1.82-4.2,1.517-5.01s2.675-2.568,2.675-2.568l1.65,2.669.42,1.6S566.233,382.684,566.028,379.644Z" transform="translate(-405.391 -284.811)" fill="#dce6f2"/>
    <path id="Path_2157" data-name="Path 2157" d="M602.378,432.83s5.675,5.572,6.283,6.484,2.643,5.658.009,7.1-12.958,3.66-13.983,2.894-7.2.864-7.2.864-10.326,2.534-8.1-1.621,7.5-3.455,7.5-3.455,8.517-.014,9.427-.864,7.775-2.672,6.22-6.427S602.378,432.83,602.378,432.83Z" transform="translate(-427.156 -323.911)" fill="#ffc1c8"/>
    <path id="Path_2158" data-name="Path 2158" d="M572.456,519.41s-13.219,11.452-11.9,11.452S572.456,519.41,572.456,519.41Z" transform="translate(-413.9 -385.561)" opacity="0.1"/>
    <path id="Path_2159" data-name="Path 2159" d="M624.1,535.6s-4.2,1.011-3.389,1.621S624.1,535.6,624.1,535.6Z" transform="translate(-456.729 -397.089)" opacity="0.1"/>
    <path id="Path_2160" data-name="Path 2160" d="M581.29,439.16s5.243.469,4.319,2.111S581.29,439.16,581.29,439.16Z" transform="translate(-428.732 -328.419)" opacity="0.1"/>
    <path id="Path_2161" data-name="Path 2161" d="M569.158,610.09s-.711,2.062,0,3.167,0,3.743,0,3.743v9.214s-.1,6.689,2.329,9.018Z" transform="translate(-419.869 -450.13)" opacity="0.1"/>
    <path id="Path_2162" data-name="Path 2162" d="M545.83,709.81a17.31,17.31,0,0,1,1.621,2.836C547.656,713.406,545.83,709.81,545.83,709.81Z" transform="translate(-403.483 -521.136)" opacity="0.1"/>
    <path id="Path_2163" data-name="Path 2163" d="M547.06,694.479s3.294-.608,3.8-.253S547.06,694.479,547.06,694.479Z" transform="translate(-404.359 -509.961)" opacity="0.1"/>
    <path id="Path_2164" data-name="Path 2164" d="M543.123,738.49s-.965.1.962,1.152,5.675,2.381,5.724,1.926S543.123,738.49,543.123,738.49Z" transform="translate(-401.383 -541.558)" opacity="0.1"/>
    <path id="Path_2165" data-name="Path 2165" d="M592.69,703.352c.34,0,4.581-.253,4.336.406S592.69,703.352,592.69,703.352Z" transform="translate(-436.85 -516.504)" opacity="0.1"/>
    <path id="Path_2166" data-name="Path 2166" d="M612.7,680.069s.962-1.67,1.316-.962S612.7,680.069,612.7,680.069Z" transform="translate(-451.098 -499.149)" opacity="0.1"/>
    <path id="Path_2167" data-name="Path 2167" d="M535.963,322.973a13.331,13.331,0,0,1-.513,3.677,2,2,0,0,1-2.211.135,5.956,5.956,0,0,1-1.857-2.016,4.589,4.589,0,0,0-1.978-1.86,3.6,3.6,0,0,0-3.268.68c-.944.68-1.7,1.578-2.592,2.3a4.215,4.215,0,0,1-3.167,1.134,5.438,5.438,0,0,1-2.016-.927,18.1,18.1,0,0,0-2.738-1.756c-.947-.366-1.728.288-2.629.288-.717.259-1.5.849-1.353,1.6a2.474,2.474,0,0,0,.369.772,3.239,3.239,0,0,1-.423,3.568,13.378,13.378,0,1,1,24.38-7.61Z" transform="translate(-377.407 -236.148)" opacity="0.1"/>
    <path id="Path_2168" data-name="Path 2168" d="M506.5,311.2c-.717.259-1.5.849-1.356,1.6a2.565,2.565,0,0,0,.371.769,3.232,3.232,0,0,1-1.44,4.351,1.275,1.275,0,0,1-.8.127,1.416,1.416,0,0,1-.576-.346,5.329,5.329,0,0,1-1.661-2.865,34.516,34.516,0,0,1-.222-3.556c-.127-1.183-.533-2.35-.674-3.542a3.285,3.285,0,0,1,.181-1.751,4.071,4.071,0,0,1,.726-1,9.351,9.351,0,0,0,2.059-2.966c.642-1.82.176-4.138,1.581-5.471a8.785,8.785,0,0,1,2.367-1.224,16.674,16.674,0,0,0,2.174-1.379c2.606-1.791,5.773-3.167,8.872-2.534a12.618,12.618,0,0,1,3.516,1.44,39.528,39.528,0,0,1,5.759,3.87,8.962,8.962,0,0,1,2.016,2.07,7.183,7.183,0,0,1,.881,2.2,12.625,12.625,0,0,1,.167,5.183,33.51,33.51,0,0,0-.967,5.039,3.255,3.255,0,0,1-.251,1.693,1.877,1.877,0,0,1-2.459.426,5.866,5.866,0,0,1-1.854-2.016,4.551,4.551,0,0,0-1.978-1.857,3.6,3.6,0,0,0-3.268.677c-.944.677-1.7,1.578-2.592,2.3a4.2,4.2,0,0,1-3.167,1.134,5.432,5.432,0,0,1-2.016-.924,17.768,17.768,0,0,0-2.735-1.756C508.211,310.535,507.4,311.2,506.5,311.2Z" transform="translate(-370.92 -223.103)" fill="#794f6a"/>
    <path id="Path_2169" data-name="Path 2169" d="M598.727,432.83s-14.9,13.781-11.858,20.672,16.413-5.269,16.413-5.269l4.768-11.034Z" transform="translate(-432.414 -323.911)" fill="#f8bdc5"/>
    <g id="Group_2462" data-name="Group 2462" transform="translate(129.188 80.45)" opacity="0.1">
      <path id="Path_2170" data-name="Path 2170" d="M504.095,355.373a1.267,1.267,0,0,1-.8.127,1.376,1.376,0,0,1-.576-.348,5.338,5.338,0,0,1-1.664-2.862c-.245-1.166-.092-2.376-.219-3.559s-.536-2.347-.674-3.542a.759.759,0,0,0-.014-.179,4.559,4.559,0,0,0,.014.991c.138,1.192.547,2.344.674,3.542a35.3,35.3,0,0,0,.219,3.556,5.336,5.336,0,0,0,1.664,2.865,1.4,1.4,0,0,0,.576.346,1.267,1.267,0,0,0,.8-.127,3.253,3.253,0,0,0,1.774-3.323A3.193,3.193,0,0,1,504.095,355.373Z" transform="translate(-500.13 -341.828)"/>
      <path id="Path_2171" data-name="Path 2171" d="M542.873,335.771a33.146,33.146,0,0,0-.965,5.039,3.228,3.228,0,0,1-.253,1.693,1.872,1.872,0,0,1-2.456.426,5.877,5.877,0,0,1-1.857-2.016,4.534,4.534,0,0,0-1.978-1.857,3.594,3.594,0,0,0-3.265.68c-.944.68-1.7,1.575-2.591,2.3a4.218,4.218,0,0,1-3.167,1.137,5.484,5.484,0,0,1-2.016-.927,17.982,17.982,0,0,0-2.735-1.756c-.944-.366-1.728.288-2.629.288-.717.262-1.5.849-1.359,1.6a1.191,1.191,0,0,0,.078.236,2.24,2.24,0,0,1,1.281-1.025c.9,0,1.693-.645,2.629-.288a17.348,17.348,0,0,1,2.735,1.756,5.349,5.349,0,0,0,2.016.924,4.155,4.155,0,0,0,3.167-1.134c.887-.734,1.65-1.641,2.591-2.3a3.633,3.633,0,0,1,3.265-.677,4.569,4.569,0,0,1,1.978,1.857,6.119,6.119,0,0,0,1.857,2.016,1.854,1.854,0,0,0,2.456-.426,3.438,3.438,0,0,0,.253-1.693,32.132,32.132,0,0,1,.965-5.039,12.742,12.742,0,0,0,.184-2.626A12.788,12.788,0,0,1,542.873,335.771Z" transform="translate(-512.558 -333.96)"/>
    </g>
    <path id="Path_2172" data-name="Path 2172" d="M562.35,175.051s-5.471,9.931,2.016,15,8.209,4.561,8.209,4.561a7.286,7.286,0,0,0,0,1.52c.1.305,2.016,1.011,2.016,1.011a16.386,16.386,0,0,0,5.673,5.373,7.93,7.93,0,0,1,3.953,5.471,3.453,3.453,0,0,0,1.728,2.534c1.728,1.215,3.058,4.763,3.058,4.763v3.245c0,.507.608,2.016-.708,2.177s-.2,3.193-.2,3.193-1.417,1.728-1.114,2.534-.608,2.43-.608,2.43-1.114,1.621-1.014,1.926-1.215,1.42-.913,2.128-1.518,1.621-1.215,2.433-1.3,1.215-1.3,1.215l-4.38,10.136s9.214,2.016,11.593,7.092l11.616-21.282s6.484-15.909,6.689-16.922-1.42-4.662-1.42-4.662l-7.9-14.4-11.858-16.721S576.843,159.75,562.35,175.051Z" transform="translate(-413.873 -136.261)" opacity="0.1"/>
    <path id="Path_2173" data-name="Path 2173" d="M585.693,190.21s-14.236,5-6.738,10.064,8.209,4.558,8.209,4.558a7.5,7.5,0,0,0,0,1.52c.1.3,2.016,1.014,2.016,1.014a16.409,16.409,0,0,0,5.675,5.373,7.93,7.93,0,0,1,3.953,5.471,3.453,3.453,0,0,0,1.728,2.534c1.728,1.215,3.041,4.763,3.041,4.763v3.242c0,.507.608,2.016-.711,2.18s-.2,3.193-.2,3.193-1.42,1.728-1.114,2.531-.608,2.433-.608,2.433-1.114,1.621-1.014,1.926-1.218,1.42-.913,2.128-1.52,1.621-1.215,2.433-1.3,1.215-1.3,1.215l-4.377,10.133s7.59.392,9.986,5.471l13.219-19.646s6.487-15.909,6.689-16.923-1.414-4.673-1.414-4.673l-7.9-14.4-18.031-10.4S600.185,174.906,585.693,190.21Z" transform="translate(-425.516 -147.23)" opacity="0.1"/>
    <path id="Path_2174" data-name="Path 2174" d="M565.17,175.054s-5.471,9.931,2.016,15,8.209,4.561,8.209,4.561a7.493,7.493,0,0,0,0,1.52c.1.305,2.016,1.011,2.016,1.011a16.408,16.408,0,0,0,5.675,5.373,7.93,7.93,0,0,1,3.953,5.471,3.453,3.453,0,0,0,1.728,2.534c1.728,1.215,3.055,4.763,3.055,4.763v3.245c0,.507.608,2.016-.711,2.177s-.2,3.193-.2,3.193-1.42,1.728-1.114,2.534-.608,2.43-.608,2.43-1.114,1.621-1.014,1.926-1.218,1.42-.913,2.128-1.52,1.621-1.215,2.433-1.3,1.215-1.3,1.215L580.371,246.7s9.2,2.016,11.59,7.092l11.616-21.282s6.487-15.909,6.689-16.923-1.42-4.662-1.42-4.662l-7.9-14.4-11.855-16.715S579.66,159.752,565.17,175.054Z" transform="translate(-415.881 -136.264)" fill="#9486fb"/>
    <g id="Group_2463" data-name="Group 2463" transform="translate(87.483 36.472)" opacity="0.1">
      <path id="Path_2175" data-name="Path 2175" d="M357.243,188.535a14.451,14.451,0,0,0-.806-3.686,15.627,15.627,0,0,1-1.123-3.51v-.109a4.69,4.69,0,0,0,0,.921,15.77,15.77,0,0,0,1.123,3.51,14.426,14.426,0,0,1,.806,3.683c.04.472.058.95.063,1.44C357.315,190.021,357.307,189.275,357.243,188.535Z" transform="translate(-355.291 -181.23)"/>
      <path id="Path_2176" data-name="Path 2176" d="M372.032,231.429c-.619,1.359-2.5,1.575-3.939,1.175a8.08,8.08,0,0,1-5.373-5.022,11.893,11.893,0,0,1-.576-3.833,13.176,13.176,0,0,0,.576,4.642,8.083,8.083,0,0,0,5.373,5.025c1.44.4,3.32.184,3.939-1.178a4.393,4.393,0,0,0,.225-1.9A2.969,2.969,0,0,1,372.032,231.429Z" transform="translate(-360.169 -211.507)"/>
      <path id="Path_2177" data-name="Path 2177" d="M469.75,182.287a2.6,2.6,0,0,1-1.368,2.266,2.154,2.154,0,0,1-1.535-.144c-1.44-.628-2.721-2.142-4.259-1.777-1.255.288-1.857,1.708-2.188,2.957a7.282,7.282,0,0,0-.308,2.439,9.5,9.5,0,0,1,.308-1.63c.331-1.247.933-2.658,2.188-2.957,1.538-.363,2.807,1.152,4.259,1.777a2.142,2.142,0,0,0,1.535.147,2.6,2.6,0,0,0,1.368-2.269,10.466,10.466,0,0,0,.086-1.777C469.822,181.642,469.793,181.968,469.75,182.287Z" transform="translate(-429.911 -181.294)"/>
      <path id="Path_2178" data-name="Path 2178" d="M423.467,219.5c-.864.625-2.036-.04-2.983-.538a3.355,3.355,0,0,0-3.268-.251c-.331.207-.6.507-.921.729a3.314,3.314,0,0,1-2.223.461c-1.834-.187-2.52-1.348-3.916-2.246-1.025-.659-3.167-.942-3.778.412a2.456,2.456,0,0,0-.118,1.247,1.62,1.62,0,0,1,.118-.435c.613-1.356,2.753-1.074,3.778-.412,1.4.9,2.082,2.059,3.916,2.246a3.332,3.332,0,0,0,2.223-.464c.322-.219.59-.518.921-.726a3.361,3.361,0,0,1,3.268.251c.947.5,2.114,1.152,2.983.536a1.6,1.6,0,0,0,.515-1.644A1.33,1.33,0,0,1,423.467,219.5Z" transform="translate(-391.56 -206.772)"/>
      <path id="Path_2179" data-name="Path 2179" d="M399.8,229.248c-.394.9-1.607,1.152-2.165,1.967a3.488,3.488,0,0,0-.369,2.116,2.4,2.4,0,0,1,.369-1.3c.559-.815,1.771-1.065,2.165-1.97a2.5,2.5,0,0,0,.109-1.227,1.624,1.624,0,0,1-.109.418Z" transform="translate(-385.171 -215.124)"/>
    </g>
  </g>
</svg>
