<svg xmlns="http://www.w3.org/2000/svg" width="254.189" height="138.396" viewBox="0 0 254.189 138.396">
  <g id="undraw_video_call_kxyp_1_" data-name="undraw_video_call_kxyp (1)" transform="translate(0 0)">
    <path id="Path_2389" data-name="Path 2389" d="M278.079,297.692a41.6,41.6,0,0,1-3.61,6.933,30.011,30.011,0,0,1-2.186,3l-.024.029H27.8l.044-.031c.22-.172,1.511-1.216,3.519-3,1.441-1.285,3.249-2.952,5.279-4.958,16.605-16.332,48.5-54.991,21.937-90.406-24.7-32.922,1.894-38.9,19.434-39.594A50.207,50.207,0,0,1,97.782,172.9a175.455,175.455,0,0,0,42.207,9.964q.95.108,1.918.207a184.816,184.816,0,0,0,30.747.557h0c.3-.015.6-.037.911-.059a182.954,182.954,0,0,0,30.074-4.654c.64-.156,1.271-.3,1.9-.44,32.913-7.615,63.255,18.339,55.671,47.671-2.807,10.846-2.094,22.412,7.259,31.765C283.767,273.182,281.9,288.219,278.079,297.692Z" transform="translate(-26.568 -169.628)" fill="#9486fb" opacity="0.1"/>
    <ellipse id="Ellipse_1289" data-name="Ellipse 1289" cx="3.091" cy="2.36" rx="3.091" ry="2.36" transform="translate(193.886 46.275) rotate(-60.79)" fill="#3f3d56"/>
    <ellipse id="Ellipse_1290" data-name="Ellipse 1290" cx="3.091" cy="2.36" rx="3.091" ry="2.36" transform="translate(195.729 42.978) rotate(-60.79)" fill="#3f3d56"/>
    <ellipse id="Ellipse_1291" data-name="Ellipse 1291" cx="3.091" cy="2.36" rx="3.091" ry="2.36" transform="translate(197.573 39.681) rotate(-60.79)" fill="#3f3d56"/>
    <ellipse id="Ellipse_1292" data-name="Ellipse 1292" cx="3.091" cy="2.36" rx="3.091" ry="2.36" transform="translate(199.415 36.382) rotate(-60.79)" fill="#3f3d56"/>
    <ellipse id="Ellipse_1293" data-name="Ellipse 1293" cx="3.091" cy="2.36" rx="3.091" ry="2.36" transform="translate(201.257 33.087) rotate(-60.79)" fill="#3f3d56"/>
    <ellipse id="Ellipse_1294" data-name="Ellipse 1294" cx="3.091" cy="2.36" rx="3.091" ry="2.36" transform="translate(203.101 29.789) rotate(-60.79)" fill="#3f3d56"/>
    <ellipse id="Ellipse_1295" data-name="Ellipse 1295" cx="3.091" cy="2.36" rx="3.091" ry="2.36" transform="translate(204.946 26.493) rotate(-60.79)" fill="#3f3d56"/>
    <path id="Path_2392" data-name="Path 2392" d="M991.889,631.77h2.664a5.5,5.5,0,0,1,5.5,5.5v8.163H986.39v-8.163A5.5,5.5,0,0,1,991.889,631.77Z" transform="translate(-769.418 -507.857)" fill="#3f3d56"/>
    <path id="Path_2393" data-name="Path 2393" d="M991.889,631.77h2.664a5.5,5.5,0,0,1,5.5,5.5v8.163H986.39v-8.163A5.5,5.5,0,0,1,991.889,631.77Z" transform="translate(-769.418 -507.857)" opacity="0.1"/>
    <circle id="Ellipse_1296" data-name="Ellipse 1296" cx="1.093" cy="1.093" r="1.093" transform="translate(222.165 124.734)" fill="#3f3d56"/>
    <circle id="Ellipse_1297" data-name="Ellipse 1297" cx="1.093" cy="1.093" r="1.093" transform="translate(222.165 123.368)" fill="#3f3d56"/>
    <circle id="Ellipse_1298" data-name="Ellipse 1298" cx="1.093" cy="1.093" r="1.093" transform="translate(222.165 122)" fill="#3f3d56"/>
    <circle id="Ellipse_1299" data-name="Ellipse 1299" cx="1.093" cy="1.093" r="1.093" transform="translate(222.165 120.634)" fill="#3f3d56"/>
    <circle id="Ellipse_1300" data-name="Ellipse 1300" cx="1.093" cy="1.093" r="1.093" transform="translate(222.165 119.268)" fill="#3f3d56"/>
    <circle id="Ellipse_1301" data-name="Ellipse 1301" cx="1.093" cy="1.093" r="1.093" transform="translate(222.165 117.902)" fill="#3f3d56"/>
    <circle id="Ellipse_1302" data-name="Ellipse 1302" cx="1.093" cy="1.093" r="1.093" transform="translate(222.165 116.536)" fill="#3f3d56"/>
    <circle id="Ellipse_1303" data-name="Ellipse 1303" cx="1.093" cy="1.093" r="1.093" transform="translate(223.804 117.081)" fill="#3f3d56"/>
    <circle id="Ellipse_1304" data-name="Ellipse 1304" cx="1.093" cy="1.093" r="1.093" transform="translate(224.897 116.536)" fill="#3f3d56"/>
    <circle id="Ellipse_1305" data-name="Ellipse 1305" cx="1.093" cy="1.093" r="1.093" transform="translate(225.99 115.988)" fill="#3f3d56"/>
    <circle id="Ellipse_1306" data-name="Ellipse 1306" cx="1.093" cy="1.093" r="1.093" transform="translate(222.165 115.17)" fill="#3f3d56"/>
    <circle id="Ellipse_1307" data-name="Ellipse 1307" cx="1.093" cy="1.093" r="1.093" transform="translate(222.165 113.804)" fill="#3f3d56"/>
    <circle id="Ellipse_1308" data-name="Ellipse 1308" cx="1.093" cy="1.093" r="1.093" transform="translate(222.165 112.436)" fill="#3f3d56"/>
    <circle id="Ellipse_1309" data-name="Ellipse 1309" cx="1.093" cy="1.093" r="1.093" transform="translate(222.165 111.07)" fill="#3f3d56"/>
    <path id="Path_2394" data-name="Path 2394" d="M1025.2,649.849q-.407.06-.818.086a6.283,6.283,0,0,0,.7-.721,4.619,4.619,0,0,0-.66-1.282,2.274,2.274,0,0,1-.88.279c-.271.04-.543.068-.816.086a14.562,14.562,0,0,0,1.045-1.1,4.641,4.641,0,1,0,1.524,3.434,4.549,4.549,0,0,0-.07-.8Z" transform="translate(-797.413 -541.21)" fill="#9486fb"/>
    <path id="Path_2395" data-name="Path 2395" d="M1058.883,686.3a2.153,2.153,0,0,1-.919.308c-.271.04-.543.068-.816.086a8.035,8.035,0,0,0,.809-.84,2.82,2.82,0,0,0-.7-.092,2.736,2.736,0,1,0,1.625.539Z" transform="translate(-827.442 -572.229)" fill="#9486fb"/>
    <circle id="Ellipse_1310" data-name="Ellipse 1310" cx="1.093" cy="1.093" r="1.093" transform="translate(220.524 117.081)" fill="#3f3d56"/>
    <circle id="Ellipse_1311" data-name="Ellipse 1311" cx="1.093" cy="1.093" r="1.093" transform="translate(219.431 116.536)" fill="#3f3d56"/>
    <circle id="Ellipse_1312" data-name="Ellipse 1312" cx="1.093" cy="1.093" r="1.093" transform="translate(218.34 115.988)" fill="#3f3d56"/>
    <path id="Path_2396" data-name="Path 2396" d="M996.078,686.3a2.153,2.153,0,0,0,.919.308c.271.04.543.068.816.086a8.011,8.011,0,0,1-.81-.84,2.822,2.822,0,0,1,.7-.092,2.736,2.736,0,1,1-1.626.539Z" transform="translate(-780.996 -572.229)" fill="#9486fb"/>
    <path id="Path_2397" data-name="Path 2397" d="M991.889,635.5h2.664a5.5,5.5,0,0,1,5.5,5.5v7.23a.933.933,0,0,1-.933.933h-11.8a.933.933,0,0,1-.933-.933V641A5.5,5.5,0,0,1,991.889,635.5Z" transform="translate(-769.418 -510.766)" fill="#3f3d56"/>
    <g id="Group_2477" data-name="Group 2477" transform="translate(218.676 104.846)" opacity="0.1">
      <path id="Path_2398" data-name="Path 2398" d="M1056.894,664.88a3.547,3.547,0,0,1-.354.334,3.543,3.543,0,0,0,.374-.033C1056.91,665.08,1056.905,664.979,1056.894,664.88Z" transform="translate(-1047.697 -660.787)"/>
      <path id="Path_2399" data-name="Path 2399" d="M1049.09,655.711c.273-.018.545-.046.816-.086a2.557,2.557,0,0,0,.71-.194,4.979,4.979,0,0,0-.383-.631,1.658,1.658,0,0,1-.44.187A6.515,6.515,0,0,1,1049.09,655.711Z" transform="translate(-1041.886 -652.925)"/>
      <path id="Path_2400" data-name="Path 2400" d="M1016.821,651.408a4.637,4.637,0,0,1,7.149-3.907l.07-.075a4.641,4.641,0,1,0-6.12,6.98A4.619,4.619,0,0,1,1016.821,651.408Z" transform="translate(-1016.34 -646.275)"/>
    </g>
    <g id="Group_2478" data-name="Group 2478" transform="translate(227.088 113.531)" opacity="0.1">
      <path id="Path_2401" data-name="Path 2401" d="M1066.48,689.128c.273-.02.545-.048.816-.088a2.15,2.15,0,0,0,.919-.306,2.724,2.724,0,0,1,1.1,1.936,2.565,2.565,0,0,0,.016-.29,2.726,2.726,0,0,0-1.1-2.2,2.152,2.152,0,0,1-.919.308l-.22.026A5.4,5.4,0,0,1,1066.48,689.128Z" transform="translate(-1063.862 -687.648)"/>
      <path id="Path_2402" data-name="Path 2402" d="M1057.312,686.305a1.253,1.253,0,0,1,.273.02c.143-.152.284-.315.427-.473a2.821,2.821,0,0,0-.7-.092,2.732,2.732,0,0,0-2.732,2.732,1.86,1.86,0,0,0,.013.273A2.734,2.734,0,0,1,1057.312,686.305Z" transform="translate(-1054.58 -685.76)"/>
    </g>
    <g id="Group_2479" data-name="Group 2479" transform="translate(213.958 113.531)" opacity="0.1">
      <path id="Path_2403" data-name="Path 2403" d="M997.741,689.128c-.273-.02-.546-.048-.816-.088a2.151,2.151,0,0,1-.919-.306,2.725,2.725,0,0,0-1.1,1.936,2.551,2.551,0,0,1-.015-.29,2.725,2.725,0,0,1,1.1-2.2,2.152,2.152,0,0,0,.919.308l.22.026A5.61,5.61,0,0,0,997.741,689.128Z" transform="translate(-994.89 -687.648)"/>
      <path id="Path_2404" data-name="Path 2404" d="M1004.869,686.305a1.253,1.253,0,0,0-.273.02c-.143-.152-.284-.315-.427-.473a2.822,2.822,0,0,1,.7-.092,2.732,2.732,0,0,1,2.732,2.732,1.869,1.869,0,0,1-.013.273A2.734,2.734,0,0,0,1004.869,686.305Z" transform="translate(-1002.129 -685.76)"/>
    </g>
    <path id="Path_2405" data-name="Path 2405" d="M37.5,539H58.515a5.5,5.5,0,0,1,5.5,5.5V571H32V544.5A5.5,5.5,0,0,1,37.5,539Z" transform="translate(-24.961 -435.493)" fill="#3f3d56"/>
    <path id="Path_2406" data-name="Path 2406" d="M37.5,539H58.515a5.5,5.5,0,0,1,5.5,5.5V571H32V544.5A5.5,5.5,0,0,1,37.5,539Z" transform="translate(-24.961 -435.493)" opacity="0.1"/>
    <circle id="Ellipse_1313" data-name="Ellipse 1313" cx="2.56" cy="2.56" r="2.56" transform="translate(19.21 105.419)" fill="#3f3d56"/>
    <circle id="Ellipse_1314" data-name="Ellipse 1314" cx="2.56" cy="2.56" r="2.56" transform="translate(19.21 102.218)" fill="#3f3d56"/>
    <circle id="Ellipse_1315" data-name="Ellipse 1315" cx="2.56" cy="2.56" r="2.56" transform="translate(19.21 99.016)" fill="#3f3d56"/>
    <circle id="Ellipse_1316" data-name="Ellipse 1316" cx="2.56" cy="2.56" r="2.56" transform="translate(19.21 95.815)" fill="#3f3d56"/>
    <circle id="Ellipse_1317" data-name="Ellipse 1317" cx="2.56" cy="2.56" r="2.56" transform="translate(19.21 92.612)" fill="#3f3d56"/>
    <circle id="Ellipse_1318" data-name="Ellipse 1318" cx="2.56" cy="2.56" r="2.56" transform="translate(19.21 89.412)" fill="#3f3d56"/>
    <circle id="Ellipse_1319" data-name="Ellipse 1319" cx="2.56" cy="2.56" r="2.56" transform="translate(19.21 86.211)" fill="#3f3d56"/>
    <circle id="Ellipse_1320" data-name="Ellipse 1320" cx="2.56" cy="2.56" r="2.56" transform="translate(23.05 87.492)" fill="#3f3d56"/>
    <circle id="Ellipse_1321" data-name="Ellipse 1321" cx="2.56" cy="2.56" r="2.56" transform="translate(25.611 86.211)" fill="#3f3d56"/>
    <circle id="Ellipse_1322" data-name="Ellipse 1322" cx="2.56" cy="2.56" r="2.56" transform="translate(28.173 84.929)" fill="#3f3d56"/>
    <circle id="Ellipse_1323" data-name="Ellipse 1323" cx="2.56" cy="2.56" r="2.56" transform="translate(19.21 83.009)" fill="#3f3d56"/>
    <circle id="Ellipse_1324" data-name="Ellipse 1324" cx="2.56" cy="2.56" r="2.56" transform="translate(19.21 79.808)" fill="#3f3d56"/>
    <circle id="Ellipse_1325" data-name="Ellipse 1325" cx="2.56" cy="2.56" r="2.56" transform="translate(19.21 76.606)" fill="#3f3d56"/>
    <circle id="Ellipse_1326" data-name="Ellipse 1326" cx="2.56" cy="2.56" r="2.56" transform="translate(19.21 73.405)" fill="#3f3d56"/>
    <path id="Path_2407" data-name="Path 2407" d="M93.018,445.464q-.952.139-1.914.2a14.91,14.91,0,0,0,1.648-1.692,10.855,10.855,0,0,0-1.527-3,5.222,5.222,0,0,1-2.05.66c-.634.092-1.274.161-1.914.2a34.511,34.511,0,0,0,2.448-2.552,10.908,10.908,0,1,0,3.407,6.172Z" transform="translate(-60.63 -377.758)" fill="#6c63ff"/>
    <path id="Path_2408" data-name="Path 2408" d="M172.086,530.821a5.042,5.042,0,0,1-2.153.717c-.636.095-1.274.161-1.914.2a18.017,18.017,0,0,0,1.9-1.966,6.407,6.407,0,1,0,2.171,1.045Z" transform="translate(-131.142 -450.388)" fill="#6c63ff"/>
    <circle id="Ellipse_1327" data-name="Ellipse 1327" cx="2.56" cy="2.56" r="2.56" transform="translate(15.367 87.492)" fill="#3f3d56"/>
    <circle id="Ellipse_1328" data-name="Ellipse 1328" cx="2.56" cy="2.56" r="2.56" transform="translate(12.806 86.211)" fill="#3f3d56"/>
    <circle id="Ellipse_1329" data-name="Ellipse 1329" cx="2.56" cy="2.56" r="2.56" transform="translate(10.246 84.929)" fill="#3f3d56"/>
    <path id="Path_2409" data-name="Path 2409" d="M24.8,530.821a5.041,5.041,0,0,0,2.156.717c.634.095,1.271.161,1.911.2a18.016,18.016,0,0,1-1.9-1.966,6.408,6.408,0,1,1-2.171,1.045Z" transform="translate(-22.207 -450.388)" fill="#6c63ff"/>
    <path id="Path_2410" data-name="Path 2410" d="M37.5,547.69H58.515a5.5,5.5,0,0,1,5.5,5.5v25.584a.933.933,0,0,1-.933.933H32.937a.933.933,0,0,1-.937-.933V553.189A5.5,5.5,0,0,1,37.5,547.69Z" transform="translate(-24.961 -442.271)" fill="#3f3d56"/>
    <g id="Group_2480" data-name="Group 2480" transform="translate(11.037 58.818)" opacity="0.1">
      <path id="Path_2411" data-name="Path 2411" d="M167.387,480.61a8.274,8.274,0,0,1-.827.783c.293-.02.587-.046.88-.075C167.429,481.081,167.413,480.843,167.387,480.61Z" transform="translate(-145.842 -471.023)"/>
      <path id="Path_2412" data-name="Path 2412" d="M149.1,459.167c.64-.044,1.278-.11,1.912-.2a6.1,6.1,0,0,0,1.667-.44,11.121,11.121,0,0,0-.9-1.483,3.778,3.778,0,0,1-1.025.44A15.22,15.22,0,0,1,149.1,459.167Z" transform="translate(-132.223 -452.637)"/>
      <path id="Path_2413" data-name="Path 2413" d="M73.5,449.052a10.864,10.864,0,0,1,16.75-9.153c.055-.057.11-.121.165-.176a10.874,10.874,0,1,0-14.336,16.355A10.825,10.825,0,0,1,73.5,449.052Z" transform="translate(-72.374 -437.025)"/>
    </g>
    <g id="Group_2481" data-name="Group 2481" transform="translate(30.729 79.172)" opacity="0.1">
      <path id="Path_2414" data-name="Path 2414" d="M189.85,537.492q.959-.062,1.914-.2a5.031,5.031,0,0,0,2.153-.717,6.392,6.392,0,0,1,2.565,4.533,6.693,6.693,0,0,0,.035-.675,6.379,6.379,0,0,0-2.593-5.138,5.042,5.042,0,0,1-2.153.717c-.169.024-.337.044-.5.064A12.672,12.672,0,0,1,189.85,537.492Z" transform="translate(-183.702 -534.03)"/>
      <path id="Path_2415" data-name="Path 2415" d="M168.3,530.836a6.174,6.174,0,0,1,.642.044c.334-.356.66-.735,1-1.1a6.379,6.379,0,0,0-8.04,6.183c0,.22.011.44.031.64A6.4,6.4,0,0,1,168.3,530.836Z" transform="translate(-161.9 -529.56)"/>
    </g>
    <g id="Group_2482" data-name="Group 2482" transform="translate(0 79.172)" opacity="0.1">
      <path id="Path_2416" data-name="Path 2416" d="M28.861,537.492q-.959-.062-1.911-.2a4.982,4.982,0,0,1-2.156-.717,6.392,6.392,0,0,0-2.558,4.533,6.7,6.7,0,0,1-.035-.675,6.379,6.379,0,0,1,2.6-5.138,5.041,5.041,0,0,0,2.156.717c.167.024.334.044.5.064a12.865,12.865,0,0,0,1.408,1.421Z" transform="translate(-22.2 -534.03)"/>
      <path id="Path_2417" data-name="Path 2417" d="M45.5,530.836a6.175,6.175,0,0,0-.642.044c-.334-.356-.66-.735-1-1.1a6.379,6.379,0,0,1,8.04,6.183,4.321,4.321,0,0,1-.031.64A6.4,6.4,0,0,0,45.5,530.836Z" transform="translate(-39.096 -529.56)"/>
    </g>
    <path id="Path_2418" data-name="Path 2418" d="M527.873,625.937l-42.893-.55.125-1.1,2.074-18.147h37.669l2.772,18.147.211,1.375Z" transform="translate(-378.301 -487.864)" fill="#d0d2d5"/>
    <path id="Path_2419" data-name="Path 2419" d="M527.831,690.015h-21.4l-21.447-.275.125-1.1H527.62Z" transform="translate(-378.301 -552.217)" opacity="0.1"/>
    <rect id="Rectangle_1773" data-name="Rectangle 1773" width="56.916" height="1.375" transform="translate(99.53 136.698)" fill="#d0d2d5"/>
    <path id="Path_2420" data-name="Path 2420" d="M391.374,199.049a3.581,3.581,0,0,0-3.561-3.6H228.863a3.581,3.581,0,0,0-3.563,3.6v96.345H391.374Z" transform="translate(-180.625 -189.77)" fill="#444053"/>
    <path id="Path_2421" data-name="Path 2421" d="M225.3,645.45v11.286a3.561,3.561,0,0,0,3.563,3.572H387.813a3.561,3.561,0,0,0,3.561-3.561v-11.3Z" transform="translate(-180.625 -540.786)" fill="#d0d2d5"/>
    <rect id="Rectangle_1774" data-name="Rectangle 1774" width="153.151" height="86.611" transform="translate(51.549 11.729)" fill="#9486fb" opacity="0.1"/>
    <path id="Path_2422" data-name="Path 2422" d="M593.292,667.01a3.715,3.715,0,0,0,2.921-1.417h0a3.983,3.983,0,0,0,.288-.425l-2.037-.334,2.2.015a3.7,3.7,0,0,0,.07-2.941l-2.954,1.54,2.725-2a3.711,3.711,0,1,0-6.13,4.135h0A3.711,3.711,0,0,0,593.292,667.01Z" transform="translate(-464.756 -551.778)" fill="#9486fb"/>
    <path id="Path_2423" data-name="Path 2423" d="M601.23,611.76l17.111,17.186-2.624-17.186Z" transform="translate(-468.98 -492.248)" opacity="0.1"/>
    <rect id="Rectangle_1775" data-name="Rectangle 1775" width="118.231" height="62.78" transform="translate(55.812 23.523)" fill="#fff"/>
    <rect id="Rectangle_1776" data-name="Rectangle 1776" width="32.977" height="1.709" transform="translate(62.406 39.889)" fill="#9486fb" opacity="0.1"/>
    <rect id="Rectangle_1777" data-name="Rectangle 1777" width="3.176" height="9.038" transform="translate(65.338 30.851)" fill="#9486fb" opacity="0.1"/>
    <rect id="Rectangle_1778" data-name="Rectangle 1778" width="3.176" height="9.038" transform="translate(69.98 30.851)" fill="#9486fb" opacity="0.1"/>
    <rect id="Rectangle_1779" data-name="Rectangle 1779" width="3.176" height="9.038" transform="translate(74.621 30.851)" fill="#9486fb" opacity="0.1"/>
    <rect id="Rectangle_1780" data-name="Rectangle 1780" width="3.176" height="9.038" transform="translate(79.262 30.851)" fill="#9486fb" opacity="0.1"/>
    <rect id="Rectangle_1781" data-name="Rectangle 1781" width="3.176" height="9.038" transform="translate(83.904 30.851)" fill="#9486fb" opacity="0.1"/>
    <rect id="Rectangle_1782" data-name="Rectangle 1782" width="3.176" height="9.038" transform="translate(88.545 30.851)" fill="#9486fb" opacity="0.1"/>
    <rect id="Rectangle_1783" data-name="Rectangle 1783" width="3.176" height="0.977" transform="translate(65.338 32.562)" fill="#9486fb" opacity="0.1"/>
    <rect id="Rectangle_1784" data-name="Rectangle 1784" width="3.176" height="0.977" transform="translate(69.98 32.562)" fill="#9486fb" opacity="0.1"/>
    <rect id="Rectangle_1785" data-name="Rectangle 1785" width="3.176" height="0.977" transform="translate(74.621 32.562)" fill="#9486fb" opacity="0.1"/>
    <rect id="Rectangle_1786" data-name="Rectangle 1786" width="3.176" height="0.977" transform="translate(79.262 32.562)" fill="#9486fb" opacity="0.1"/>
    <rect id="Rectangle_1787" data-name="Rectangle 1787" width="3.176" height="0.977" transform="translate(83.904 32.562)" fill="#9486fb" opacity="0.1"/>
    <rect id="Rectangle_1788" data-name="Rectangle 1788" width="3.176" height="0.977" transform="translate(88.545 32.562)" fill="#9486fb" opacity="0.1"/>
    <rect id="Rectangle_1789" data-name="Rectangle 1789" width="3.176" height="0.977" transform="translate(65.338 36.959)" fill="#9486fb" opacity="0.1"/>
    <rect id="Rectangle_1790" data-name="Rectangle 1790" width="3.176" height="0.977" transform="translate(69.98 36.959)" fill="#9486fb" opacity="0.1"/>
    <rect id="Rectangle_1791" data-name="Rectangle 1791" width="3.176" height="0.977" transform="translate(74.621 36.959)" fill="#9486fb" opacity="0.1"/>
    <rect id="Rectangle_1792" data-name="Rectangle 1792" width="3.176" height="0.977" transform="translate(79.262 36.959)" fill="#9486fb" opacity="0.1"/>
    <rect id="Rectangle_1793" data-name="Rectangle 1793" width="3.176" height="0.977" transform="translate(83.904 36.959)" fill="#9486fb" opacity="0.1"/>
    <rect id="Rectangle_1794" data-name="Rectangle 1794" width="3.176" height="0.977" transform="translate(88.545 36.959)" fill="#9486fb" opacity="0.1"/>
    <rect id="Rectangle_1795" data-name="Rectangle 1795" width="32.977" height="1.709" transform="translate(134.713 44.286)" fill="#9486fb" opacity="0.1"/>
    <rect id="Rectangle_1796" data-name="Rectangle 1796" width="3.176" height="9.038" transform="translate(137.645 35.248)" fill="#9486fb" opacity="0.1"/>
    <rect id="Rectangle_1797" data-name="Rectangle 1797" width="3.176" height="9.038" transform="translate(142.287 35.248)" fill="#9486fb" opacity="0.1"/>
    <rect id="Rectangle_1798" data-name="Rectangle 1798" width="3.176" height="9.038" transform="translate(146.928 35.248)" fill="#9486fb" opacity="0.1"/>
    <rect id="Rectangle_1799" data-name="Rectangle 1799" width="3.176" height="9.038" transform="translate(151.569 35.248)" fill="#9486fb" opacity="0.1"/>
    <rect id="Rectangle_1800" data-name="Rectangle 1800" width="3.176" height="9.038" transform="translate(156.211 35.248)" fill="#9486fb" opacity="0.1"/>
    <rect id="Rectangle_1801" data-name="Rectangle 1801" width="3.176" height="9.038" transform="translate(160.852 35.248)" fill="#9486fb" opacity="0.1"/>
    <rect id="Rectangle_1802" data-name="Rectangle 1802" width="3.176" height="0.977" transform="translate(137.645 36.959)" fill="#9486fb" opacity="0.1"/>
    <rect id="Rectangle_1803" data-name="Rectangle 1803" width="3.176" height="0.977" transform="translate(142.287 36.959)" fill="#9486fb" opacity="0.1"/>
    <rect id="Rectangle_1804" data-name="Rectangle 1804" width="3.176" height="0.977" transform="translate(146.928 36.959)" fill="#9486fb" opacity="0.1"/>
    <rect id="Rectangle_1805" data-name="Rectangle 1805" width="3.176" height="0.977" transform="translate(151.569 36.959)" fill="#9486fb" opacity="0.1"/>
    <rect id="Rectangle_1806" data-name="Rectangle 1806" width="3.176" height="0.977" transform="translate(156.211 36.959)" fill="#9486fb" opacity="0.1"/>
    <rect id="Rectangle_1807" data-name="Rectangle 1807" width="3.176" height="0.977" transform="translate(160.852 36.959)" fill="#9486fb" opacity="0.1"/>
    <rect id="Rectangle_1808" data-name="Rectangle 1808" width="3.176" height="0.977" transform="translate(137.645 41.356)" fill="#9486fb" opacity="0.1"/>
    <rect id="Rectangle_1809" data-name="Rectangle 1809" width="3.176" height="0.977" transform="translate(142.287 41.356)" fill="#9486fb" opacity="0.1"/>
    <rect id="Rectangle_1810" data-name="Rectangle 1810" width="3.176" height="0.977" transform="translate(146.928 41.356)" fill="#9486fb" opacity="0.1"/>
    <rect id="Rectangle_1811" data-name="Rectangle 1811" width="3.176" height="0.977" transform="translate(151.569 41.356)" fill="#9486fb" opacity="0.1"/>
    <rect id="Rectangle_1812" data-name="Rectangle 1812" width="3.176" height="0.977" transform="translate(156.211 41.356)" fill="#9486fb" opacity="0.1"/>
    <rect id="Rectangle_1813" data-name="Rectangle 1813" width="3.176" height="0.977" transform="translate(160.852 41.356)" fill="#9486fb" opacity="0.1"/>
    <rect id="Rectangle_1814" data-name="Rectangle 1814" width="32.977" height="1.709" transform="translate(134.713 56.745)" fill="#9486fb" opacity="0.1"/>
    <rect id="Rectangle_1815" data-name="Rectangle 1815" width="3.176" height="9.038" transform="translate(137.645 47.706)" fill="#9486fb" opacity="0.1"/>
    <rect id="Rectangle_1816" data-name="Rectangle 1816" width="3.176" height="9.038" transform="translate(142.287 47.706)" fill="#9486fb" opacity="0.1"/>
    <rect id="Rectangle_1817" data-name="Rectangle 1817" width="3.176" height="9.038" transform="translate(146.928 47.706)" fill="#9486fb" opacity="0.1"/>
    <rect id="Rectangle_1818" data-name="Rectangle 1818" width="3.176" height="9.038" transform="translate(151.569 47.706)" fill="#9486fb" opacity="0.1"/>
    <rect id="Rectangle_1819" data-name="Rectangle 1819" width="3.176" height="9.038" transform="translate(156.211 47.706)" fill="#9486fb" opacity="0.1"/>
    <rect id="Rectangle_1820" data-name="Rectangle 1820" width="3.176" height="9.038" transform="translate(160.852 47.706)" fill="#9486fb" opacity="0.1"/>
    <rect id="Rectangle_1821" data-name="Rectangle 1821" width="3.176" height="0.977" transform="translate(137.645 49.416)" fill="#9486fb" opacity="0.1"/>
    <rect id="Rectangle_1822" data-name="Rectangle 1822" width="3.176" height="0.977" transform="translate(142.287 49.416)" fill="#9486fb" opacity="0.1"/>
    <rect id="Rectangle_1823" data-name="Rectangle 1823" width="3.176" height="0.977" transform="translate(146.928 49.416)" fill="#9486fb" opacity="0.1"/>
    <rect id="Rectangle_1824" data-name="Rectangle 1824" width="3.176" height="0.977" transform="translate(151.569 49.416)" fill="#9486fb" opacity="0.1"/>
    <rect id="Rectangle_1825" data-name="Rectangle 1825" width="3.176" height="0.977" transform="translate(156.211 49.416)" fill="#9486fb" opacity="0.1"/>
    <rect id="Rectangle_1826" data-name="Rectangle 1826" width="3.176" height="0.977" transform="translate(160.852 49.416)" fill="#9486fb" opacity="0.1"/>
    <rect id="Rectangle_1827" data-name="Rectangle 1827" width="3.176" height="0.977" transform="translate(137.645 53.813)" fill="#9486fb" opacity="0.1"/>
    <rect id="Rectangle_1828" data-name="Rectangle 1828" width="3.176" height="0.977" transform="translate(142.287 53.813)" fill="#9486fb" opacity="0.1"/>
    <rect id="Rectangle_1829" data-name="Rectangle 1829" width="3.176" height="0.977" transform="translate(146.928 53.813)" fill="#9486fb" opacity="0.1"/>
    <rect id="Rectangle_1830" data-name="Rectangle 1830" width="3.176" height="0.977" transform="translate(151.569 53.813)" fill="#9486fb" opacity="0.1"/>
    <rect id="Rectangle_1831" data-name="Rectangle 1831" width="3.176" height="0.977" transform="translate(156.211 53.813)" fill="#9486fb" opacity="0.1"/>
    <rect id="Rectangle_1832" data-name="Rectangle 1832" width="3.176" height="0.977" transform="translate(160.852 53.813)" fill="#9486fb" opacity="0.1"/>
    <path id="Path_2424" data-name="Path 2424" d="M391.261,389.14a8.7,8.7,0,0,1-.673-.99l4.749-.779-5.145.042a8.674,8.674,0,0,1-.165-6.859l6.889,3.574-6.353-4.67a8.656,8.656,0,1,1,14.3,9.678,8.651,8.651,0,0,1,.992,1.575l-6.159,3.2,6.57-2.2a8.651,8.651,0,0,1-1.395,8.126,8.656,8.656,0,1,1-13.6,0,8.656,8.656,0,0,1,0-10.7Z" transform="translate(-308.628 -329.921)" fill="#9486fb" opacity="0.1"/>
    <path id="Path_2425" data-name="Path 2425" d="M406.745,462.727a8.618,8.618,0,0,1-1.852,5.35,8.656,8.656,0,1,1-13.6,0C390.129,466.605,406.745,461.755,406.745,462.727Z" transform="translate(-308.656 -398.156)" fill="#9486fb" opacity="0.1"/>
    <path id="Path_2426" data-name="Path 2426" d="M423.633,552.906c.015.024.026.048.042.073h-2.939c.015-.024.026-.048.042-.073a2.861,2.861,0,0,1-.378-1.447,2.979,2.979,0,0,1,.178-1.018h0c.163.026.365.055.6.079a10.318,10.318,0,0,0,2.05,0c.194-.02.4-.048.6-.079,0,.005,0,.01,0,.015a2.936,2.936,0,0,1,.174,1A2.86,2.86,0,0,1,423.633,552.906Z" transform="translate(-332.809 -466.675)" fill="#3f3d56" opacity="0.2"/>
    <path id="Path_2427" data-name="Path 2427" d="M305.009,448.628H288.665c-.037-.095-.07-.194-.1-.29a8.6,8.6,0,0,1,.191-5.657,8.654,8.654,0,0,1-3.159-10.226,8.954,8.954,0,0,1-.937-.748l4.307-2.147-4.894,1.553a8.664,8.664,0,0,1-2.182-6.507l7.637,1.379-7.448-2.587a8.656,8.656,0,1,1,16.515,5.035,8.814,8.814,0,0,1,1.41,1.216l-4.945,4.879,5.629-4.047a8.658,8.658,0,0,1,1.065,8.178A8.658,8.658,0,0,1,305.009,448.628Z" transform="translate(-224.746 -362.32)" fill="#9486fb" opacity="0.1"/>
    <path id="Path_2428" data-name="Path 2428" d="M327.407,506.362H311.063c-.037-.095-.07-.194-.1-.29a8.6,8.6,0,0,1,.191-5.658c-1.54-1.067,12.9-10.6,13.2-9.678a8.638,8.638,0,0,1-.191,5.66,8.658,8.658,0,0,1,3.245,9.967Z" transform="translate(-247.144 -420.054)" fill="#9486fb" opacity="0.1"/>
    <path id="Path_2429" data-name="Path 2429" d="M628.352,462.269a8.614,8.614,0,0,1-4.333,3.643,8.93,8.93,0,0,1,.037,1.863l-6.933-.416,6.771,1.48A8.676,8.676,0,0,1,620.552,474h-9.437v.244H601.51c.02-.084.04-.165.062-.244a8.686,8.686,0,0,1,5.279-5.875,8.662,8.662,0,0,1,5.5-9.186,8.663,8.663,0,0,1-.073-1.194l4.476,1.76-4.426-2.6a8.676,8.676,0,0,1,3.368-5.97l4.078,6.6-3.055-7.259a8.653,8.653,0,0,1,11.632,12.006Z" transform="translate(-474.082 -387.687)" fill="#9486fb" opacity="0.1"/>
    <path id="Path_2430" data-name="Path 2430" d="M622.86,537a8.53,8.53,0,0,1-2.307,2.541h-9.437v.244H601.51c.02-.084.04-.165.062-.244a8.687,8.687,0,0,1,5.279-5.875c-.081-.631,1.784-.545,4.267-.128C615.973,534.354,623.19,536.451,622.86,537Z" transform="translate(-474.082 -453.235)" fill="#9486fb" opacity="0.1"/>
    <path id="Path_2431" data-name="Path 2431" d="M504.906,443.736s1.177,6.416-1.463,8.508,2.23,14.645,10.321,13.183,11.368-12,11.368-12-8.09-1.672-5.092-10.18Z" transform="translate(-397.024 -383.063)" fill="#efb7b9"/>
    <path id="Path_2432" data-name="Path 2432" d="M504.906,443.736s1.177,6.416-1.463,8.508,2.23,14.645,10.321,13.183,11.368-12,11.368-12-8.09-1.672-5.092-10.18Z" transform="translate(-397.024 -383.063)" opacity="0.1"/>
    <circle id="Ellipse_1330" data-name="Ellipse 1330" cx="13.389" cy="13.389" r="13.389" transform="translate(101.642 38.602)" fill="#efb7b9"/>
    <path id="Path_2433" data-name="Path 2433" d="M488.393,487.764v9.1H444.18V488.18a5.611,5.611,0,0,1,3.423-5.165l1.269-.539c3.207-1.366,7.1-3.062,8.376-3.768a2.1,2.1,0,0,0,.392-.253c.7-.7.559.209.559.209s-.02.172-.033.471c-.075,2.048.22,10.1,9.656,9.432,9.208-.66,9.612-6.872,9.529-8.7a4.538,4.538,0,0,0-.044-.506,12.625,12.625,0,0,1,1.865.607,38.825,38.825,0,0,1,5.528,2.393c.238.165.526.341.838.515a5.578,5.578,0,0,1,2.86,4.888Z" transform="translate(-351.359 -410.318)" fill="#9486fb"/>
    <path id="Path_2434" data-name="Path 2434" d="M525.484,479.992c-.779,3.612-3.225,10.378-12.048,10.558-9.395.185-9.936-9.159-9.879-11.81a2.033,2.033,0,0,0,.394-.255c.7-.7.559.209.559.209s-1.186,10.671,9.623,9.9,9.485-9.206,9.485-9.206A11.027,11.027,0,0,1,525.484,479.992Z" transform="translate(-397.673 -410.341)" opacity="0.1"/>
    <path id="Path_2435" data-name="Path 2435" d="M469.959,331.345a2.315,2.315,0,0,1,2.42.88,4.326,4.326,0,0,1,.618,2.3c.583.123.911-.537.963-1.032a26.83,26.83,0,0,1,.911-6.042,7.23,7.23,0,0,1,4.448-4.6,5.139,5.139,0,0,1,2.42-.231c.482.081.937.249,1.419.328,1.665.275,3.48-.515,5.044.035a3.975,3.975,0,0,1,2.059,1.945,4.243,4.243,0,0,0,.8,1.164,5.592,5.592,0,0,0,2.657.937,3.433,3.433,0,0,1,2.4,1.243,3.24,3.24,0,0,1-.026,2.151,5.253,5.253,0,0,0,.543,3.321c.176.334.532.713.952.6a.84.84,0,0,0,.455-.37c1.1-1.54,1.065-3.537,2.435-4.912.46-.46,1.051-.821,1.5-1.289a2.9,2.9,0,0,0,.776-2.64,8.708,8.708,0,0,0-1.775-2.86,11.219,11.219,0,0,1-1.9-3.948.7.7,0,0,1,0-.515,1.38,1.38,0,0,1,.486-.4,1.839,1.839,0,0,0,.631-2.349A3.877,3.877,0,0,0,498,313.321a14.56,14.56,0,0,0-3-.66,1.632,1.632,0,0,1-1.672-.825c-.092-.24-.092-.5-.187-.739a1.694,1.694,0,0,0-1.274-.9,3.74,3.74,0,0,0-1.72.121,2.686,2.686,0,0,1-1.92.136c-.29-.165-.453-.464-.765-.6-.634-.271-1.3.275-1.76.726a4.333,4.333,0,0,1-1.59,1.067,2.361,2.361,0,0,1-1.966-.13,6.2,6.2,0,0,1-1.01-1.084,3.8,3.8,0,0,0-2.389-.979,8.444,8.444,0,0,0-2.7.295,16.33,16.33,0,0,0-4.74,1.98,5.09,5.09,0,0,0-1.817,1.689,3.834,3.834,0,0,0-.409,1.742,6.294,6.294,0,0,0,2.2,5.218,3.1,3.1,0,0,0-1.571,2.349,12.885,12.885,0,0,0-.609,4.4,9.666,9.666,0,0,1,.167,2.285,4.939,4.939,0,0,0-.15,1.1A1.051,1.051,0,0,0,469.959,331.345Z" transform="translate(-370.776 -278.692)" fill="#454b69"/>
    <g id="Group_2483" data-name="Group 2483" transform="translate(98.298 35.624)" opacity="0.1">
      <path id="Path_2436" data-name="Path 2436" d="M598.133,378.18a3.155,3.155,0,0,1-.578.851c-.44.469-1.038.829-1.5,1.291-1.37,1.373-1.342,3.376-2.435,4.912a.836.836,0,0,1-.455.367c-.42.108-.776-.271-.952-.6a5.343,5.343,0,0,1-.477-1.287q-.035.167-.066.337a5.252,5.252,0,0,0,.543,3.321c.176.334.532.713.952.6a.84.84,0,0,0,.455-.37c1.1-1.54,1.065-3.537,2.435-4.912.46-.46,1.051-.82,1.5-1.289a2.9,2.9,0,0,0,.776-2.64A3.168,3.168,0,0,0,598.133,378.18Z" transform="translate(-564.65 -367.93)"/>
      <path id="Path_2437" data-name="Path 2437" d="M605.813,333.674a1.35,1.35,0,0,0-.486.4.7.7,0,0,0,0,.515,10.739,10.739,0,0,0,.486,1.463h0a1.839,1.839,0,0,0,.622-2.373,2.4,2.4,0,0,0-.22-.374A1.834,1.834,0,0,1,605.813,333.674Z" transform="translate(-575.32 -332.922)"/>
      <path id="Path_2438" data-name="Path 2438" d="M471.287,335.3a5.972,5.972,0,0,1-2.1-3.717,5.282,5.282,0,0,0-.1.88,6.693,6.693,0,0,0,1.056,3.959A2.25,2.25,0,0,1,471.287,335.3Z" transform="translate(-469.081 -331.58)"/>
      <path id="Path_2439" data-name="Path 2439" d="M496.255,366.2a3.241,3.241,0,0,0,.026-2.151,3.42,3.42,0,0,0-2.4-1.243,5.577,5.577,0,0,1-2.657-.937,4.244,4.244,0,0,1-.8-1.164,3.943,3.943,0,0,0-2.059-1.945c-1.564-.55-3.379.24-5.044-.035-.482-.079-.937-.246-1.419-.328a5.139,5.139,0,0,0-2.42.22,7.22,7.22,0,0,0-4.448,4.6,26.619,26.619,0,0,0-.911,6.042c-.053.495-.381,1.155-.963,1.032a4.366,4.366,0,0,0-.618-2.3,2.3,2.3,0,0,0-2.42-.88,1.166,1.166,0,0,1-.677-.44,3.7,3.7,0,0,1-.013.88,4.939,4.939,0,0,0-.15,1.1,1.051,1.051,0,0,0,.836.831,2.315,2.315,0,0,1,2.42.88,4.326,4.326,0,0,1,.618,2.3c.583.123.911-.537.963-1.032a26.828,26.828,0,0,1,.911-6.042,7.229,7.229,0,0,1,4.448-4.6,5.138,5.138,0,0,1,2.42-.231c.482.081.937.249,1.419.328,1.665.275,3.48-.515,5.044.035a3.975,3.975,0,0,1,2.059,1.944,4.244,4.244,0,0,0,.8,1.164,5.592,5.592,0,0,0,2.657.937,3.529,3.529,0,0,1,2.351,1.168C496.24,366.3,496.247,366.251,496.255,366.2Z" transform="translate(-469.235 -352.457)"/>
      <path id="Path_2440" data-name="Path 2440" d="M469.305,383.2a6.186,6.186,0,0,0-.106-1.786,7.961,7.961,0,0,0-.062,1.872c.013.161.035.319.057.479C469.222,383.572,469.27,383.385,469.305,383.2Z" transform="translate(-469.103 -370.449)"/>
    </g>
    <rect id="Rectangle_1833" data-name="Rectangle 1833" width="19.797" height="13.737" transform="translate(180.092 72.644)" fill="#fff"/>
    <path id="Path_2441" data-name="Path 2441" d="M895.827,533.823a2.444,2.444,0,0,1-1.234,1.036,2.511,2.511,0,0,1,.011.53l-1.98-.119,1.927.422a2.48,2.48,0,0,1-.95,1.465h-2.679v.07H888.19a.106.106,0,0,1,.018-.07,2.421,2.421,0,0,1,.268-.636,7.048,7.048,0,0,0,2.8-3.649,2.191,2.191,0,0,1-.02-.339l1.274.5-1.26-.739a2.459,2.459,0,0,1,.961-1.7l1.159,1.878-.869-2.068a2.464,2.464,0,0,1,3.3,3.416Z" transform="translate(-697.702 -450.814)" fill="#9486fb" opacity="0.1"/>
    <path id="Path_2442" data-name="Path 2442" d="M894.263,555.083a2.42,2.42,0,0,1-.66.722h-2.681v.07H888.19a.106.106,0,0,1,.018-.07,2.421,2.421,0,0,1,.268-.636,2.451,2.451,0,0,1,1.232-1.036c-.022-.178.508-.154,1.214-.035C892.3,554.331,894.358,554.927,894.263,555.083Z" transform="translate(-697.702 -469.454)" fill="#9486fb" opacity="0.1"/>
    <path id="Path_2443" data-name="Path 2443" d="M843.2,533.823a2.444,2.444,0,0,0,1.234,1.036,2.519,2.519,0,0,0-.011.53l1.98-.119-1.927.422a2.479,2.479,0,0,0,.95,1.465h2.686v.07h2.734a.419.419,0,0,0-.018-.07,2.579,2.579,0,0,0-.268-.636,7.032,7.032,0,0,1-2.8-3.649,2.506,2.506,0,0,0,.022-.339l-1.274.5,1.258-.739a2.459,2.459,0,0,0-.961-1.7l-1.159,1.878.869-2.068a2.464,2.464,0,0,0-3.3,3.416Z" transform="translate(-662.355 -450.814)" fill="#9486fb" opacity="0.1"/>
    <path id="Path_2444" data-name="Path 2444" d="M851.447,555.083a2.419,2.419,0,0,0,.66.722h2.686v.07h2.734a.409.409,0,0,0-.018-.07,2.573,2.573,0,0,0-.268-.636,2.464,2.464,0,0,0-1.234-1.036c.022-.178-.508-.154-1.214-.035C853.407,554.331,851.346,554.927,851.447,555.083Z" transform="translate(-669.039 -469.454)" fill="#9486fb" opacity="0.1"/>
    <rect id="Rectangle_1834" data-name="Rectangle 1834" width="4.424" height="4.927" transform="translate(187.523 75.671)" fill="#464353"/>
    <rect id="Rectangle_1835" data-name="Rectangle 1835" width="4.424" height="4.927" transform="translate(187.523 75.671)" opacity="0.1"/>
    <path id="Path_2445" data-name="Path 2445" d="M843.62,453.891l-.09,1.28h1.263l.079-1.691Z" transform="translate(-657.983 -368.784)" fill="#fdc2cc"/>
    <path id="Path_2446" data-name="Path 2446" d="M873.5,453.891l-.191,1.28h1.157l.073-1.691Z" transform="translate(-681.212 -368.784)" fill="#fdc2cc"/>
    <path id="Path_2447" data-name="Path 2447" d="M878.99,524.225a2.052,2.052,0,0,1-.2.807,1.521,1.521,0,0,0,2.578.185s-.517-.44-.4-.933S878.99,524.225,878.99,524.225Z" transform="translate(-690.363 -446.089)" fill="#a1616a"/>
    <path id="Path_2448" data-name="Path 2448" d="M878.99,524.225a2.052,2.052,0,0,1-.2.807,1.521,1.521,0,0,0,2.578.185s-.517-.44-.4-.933S878.99,524.225,878.99,524.225Z" transform="translate(-690.363 -446.089)" fill="#fdc2cc" opacity="0.712"/>
    <circle id="Ellipse_1331" data-name="Ellipse 1331" cx="2.213" cy="2.213" r="2.213" transform="translate(187.52 74.283)" fill="#fdc2cc"/>
    <path id="Path_2449" data-name="Path 2449" d="M869.646,528.032a1.1,1.1,0,0,1-1.067-.862,5.663,5.663,0,0,1-.581.44c-.09.031-.977.532-1.144.563a.944.944,0,0,0-.44.22,1.92,1.92,0,0,0-.732,1.434c-.031.992-.152,2.93-.152,2.93l.046.7v.458a1.605,1.605,0,0,0,1.32-.22s0-.167.092-.22.106-.275.09-.367a3.557,3.557,0,0,1,0-.411.3.3,0,0,0,.123.183.941.941,0,0,1,.031.383c-.046.09-.092.3-.046.35a.22.22,0,0,1-.031.26,1.512,1.512,0,0,0-.2.383s-.046.273-.092.3a1.266,1.266,0,0,0-.106.352h5.5a5.3,5.3,0,0,1-.22-.856c.016-.136-.136-.7-.031-.853a1.17,1.17,0,0,0,.244-.7l.062.594-.167,1.32s1.021.321,1.128.121a7.054,7.054,0,0,0,.26-1.067s.244-1.1.306-1.252.2-3.2-.627-3.645a24.675,24.675,0,0,0-2.42-1.166A1.023,1.023,0,0,1,869.646,528.032Z" transform="translate(-680.027 -448.523)" fill="#ec7580"/>
    <path id="Path_2450" data-name="Path 2450" d="M871.487,544.65a1.1,1.1,0,0,0-.189.772,2.136,2.136,0,0,0,.26.765" transform="translate(-684.518 -462.158)" fill="none" stroke="#000" stroke-miterlimit="10" stroke-width="1" opacity="0.1"/>
    <path id="Path_2451" data-name="Path 2451" d="M896.293,545.6a2.32,2.32,0,0,1,.092.343,1.044,1.044,0,0,1-.145.862" transform="translate(-703.981 -462.899)" fill="none" stroke="#000" stroke-miterlimit="10" stroke-width="1" opacity="0.1"/>
    <path id="Path_2452" data-name="Path 2452" d="M872.257,503.607a.732.732,0,0,1,.517.053,2.706,2.706,0,0,0,.493.2c.114.024.22.024.348.042a1.082,1.082,0,0,1,.867.847c.1.541-.22,1.073-.22,1.626a1.36,1.36,0,0,0,.315.864,2.552,2.552,0,0,1,.44.526c.064.141.077.3.139.44a1.135,1.135,0,0,0,.625.532,4.255,4.255,0,0,1,.763.343c.44.293.7.853,1.21.974a.2.2,0,0,0,.161,0,.2.2,0,0,0,.075-.154.719.719,0,0,0-.2-.592c-.125-.125-.308-.22-.348-.389s.066-.315.123-.469a1.548,1.548,0,0,0-.466-1.447,2.972,2.972,0,0,1-.842-1.32,3.472,3.472,0,0,1-.02-.523,3.472,3.472,0,0,0-.185-1.058,1.554,1.554,0,0,0-.264-.508c-.11-.132-.251-.233-.365-.361a5.449,5.449,0,0,1-.409-.66,1.98,1.98,0,0,0-1.617-.908,3.334,3.334,0,0,0-1.727.6,1.481,1.481,0,0,0-.488.429c-.22.35-.154.812-.281,1.208s-.429.689-.535,1.076a.755.755,0,0,0-.015.35,1.792,1.792,0,0,0,.156.352,2.62,2.62,0,0,1,.2.891,1.758,1.758,0,0,1-.145,1.082,1.813,1.813,0,0,1-.55.466,1.071,1.071,0,0,0,.768.235,1.356,1.356,0,0,0,1.161-.33,1.152,1.152,0,0,0,.176-.8,3.375,3.375,0,0,0-.185-.9,6.853,6.853,0,0,1-.427-1.219,1.149,1.149,0,0,1,.22-.88c.079-.1.22-.15.286-.255C872.083,503.824,872.059,503.677,872.257,503.607Z" transform="translate(-683.513 -428.624)" fill="#865a61"/>
    <g id="Group_2484" data-name="Group 2484" transform="translate(186.491 74.606)" opacity="0.1">
      <path id="Path_2453" data-name="Path 2453" d="M871.676,517.331a2.619,2.619,0,0,1,.2.891c0,.1.016.2.018.295a3.022,3.022,0,0,0,0-.647,2.6,2.6,0,0,0-.2-.88,1.978,1.978,0,0,1-.156-.35.744.744,0,0,0-.015.347A1.792,1.792,0,0,0,871.676,517.331Z" transform="translate(-871.181 -514.916)"/>
      <path id="Path_2454" data-name="Path 2454" d="M871.964,527.588a1.371,1.371,0,0,1-1.161.332,1.718,1.718,0,0,1-.521-.079c-.084.068-.174.132-.262.194a1.071,1.071,0,0,0,.768.235,1.356,1.356,0,0,0,1.161-.33,1.1,1.1,0,0,0,.18-.75A.842.842,0,0,1,871.964,527.588Z" transform="translate(-870.02 -523.145)"/>
      <path id="Path_2455" data-name="Path 2455" d="M903.842,530.98a.349.349,0,0,0,.026.073c.026-.062.057-.125.081-.189a.91.91,0,0,0,.044-.453.931.931,0,0,1-.029.1C903.908,530.667,903.8,530.821,903.842,530.98Z" transform="translate(-896.396 -525.657)"/>
      <path id="Path_2456" data-name="Path 2456" d="M879.8,510.42a1.38,1.38,0,0,0,0-.455,1.08,1.08,0,0,0-.867-.847c-.117-.02-.233-.02-.348-.042a2.868,2.868,0,0,1-.493-.2.732.732,0,0,0-.517-.055c-.2.07-.174.22-.262.365-.064.106-.207.158-.286.255a1.137,1.137,0,0,0-.22.812.992.992,0,0,1,.2-.46c.079-.1.22-.15.286-.255.088-.147.064-.295.262-.365a.732.732,0,0,1,.517.053,2.708,2.708,0,0,0,.493.2c.114.024.22.024.348.042a1.082,1.082,0,0,1,.867.847A.879.879,0,0,1,879.8,510.42Z" transform="translate(-875.306 -508.801)"/>
      <path id="Path_2457" data-name="Path 2457" d="M892.974,525.455a.22.22,0,0,1-.161,0c-.51-.121-.774-.682-1.21-.974a4.587,4.587,0,0,0-.763-.343,1.131,1.131,0,0,1-.625-.53c-.062-.143-.075-.3-.139-.44a2.567,2.567,0,0,0-.44-.526,1.37,1.37,0,0,1-.317-.772,1.689,1.689,0,0,0-.02.257,1.359,1.359,0,0,0,.33.871,2.552,2.552,0,0,1,.44.526c.064.141.077.3.138.44a1.135,1.135,0,0,0,.625.532,4.253,4.253,0,0,1,.763.343c.44.293.7.853,1.21.974a.2.2,0,0,0,.161,0,.2.2,0,0,0,.075-.154.728.728,0,0,0-.013-.249.134.134,0,0,1-.055.044Z" transform="translate(-885.059 -518.995)"/>
    </g>
    <rect id="Rectangle_1836" data-name="Rectangle 1836" width="2.829" height="4.041" transform="translate(182.111 73.654)" fill="#9486fb" opacity="0.1"/>
    <rect id="Rectangle_1837" data-name="Rectangle 1837" width="2.019" height="2.886" transform="translate(182.516 74.232)" fill="#9486fb" opacity="0.1"/>
    <rect id="Rectangle_1838" data-name="Rectangle 1838" width="4.646" height="2.424" transform="translate(194.232 74.261)" fill="#9486fb" opacity="0.1"/>
    <rect id="Rectangle_1839" data-name="Rectangle 1839" width="3.434" height="1.793" transform="translate(194.839 74.577)" fill="#9486fb" opacity="0.1"/>
  </g>
</svg>
