<svg xmlns="http://www.w3.org/2000/svg" xmlns:xlink="http://www.w3.org/1999/xlink" width="314.453" height="223" viewBox="0 0 314.453 223">
  <defs>
    <linearGradient id="linear-gradient" x1="146.593" y1="1" x2="146.593" gradientUnits="objectBoundingBox">
      <stop offset="0" stop-color="gray" stop-opacity="0.251"/>
      <stop offset="0.535" stop-color="gray" stop-opacity="0.122"/>
      <stop offset="1" stop-color="gray" stop-opacity="0.102"/>
    </linearGradient>
  </defs>
  <g id="Group_2450" data-name="Group 2450" transform="translate(-567 -323)">
    <path id="Path_1284" data-name="Path 1284" d="M277.926,64.878c-20.159-.7-39.359-7.208-57.692-14.328s-36.493-15.01-56.169-18.782c-12.655-2.426-27.13-2.769-37.325,4.015-9.815,6.541-12.986,17.8-14.689,28.261-1.283,7.868-2.037,16.15,1.476,23.514,2.442,5.115,6.772,9.413,9.768,14.313,10.425,17.044,3.056,38.063-8.239,54.705-5.3,7.809-11.447,15.263-15.537,23.567s-5.98,17.832-2.4,26.311c3.545,8.41,12,14.714,21.149,19.153,18.592,9.017,40.492,11.6,61.863,13.057,47.292,3.236,94.833,1.835,142.25.433,17.549-.52,35.172-1.047,52.435-3.76,9.587-1.508,19.483-3.9,26.445-9.671,8.834-7.329,11.023-19.738,5.1-28.93-9.93-15.415-37.378-19.243-44.327-35.786-3.819-9.108.1-19.249,5.656-27.7,11.911-18.116,31.874-34.011,32.923-54.718.723-14.222-8.874-28.466-23.713-35.2-15.552-7.052-37.122-6.167-48.591,5.51C316.49,60.869,295.727,65.494,277.926,64.878Z" transform="translate(471.774 292.822)" fill="#6c63ff" opacity="0.1"/>
    <g id="undraw_click_here_2li1" transform="translate(617 332.443)">
      <circle id="Ellipse_1110" data-name="Ellipse 1110" cx="18.637" cy="18.637" r="18.637" transform="translate(168.583)" fill="#6c63ff"/>
      <path id="Path_1287" data-name="Path 1287" d="M903.389,428.644a3.389,3.389,0,1,1,3.389-3.389A3.389,3.389,0,0,1,903.389,428.644Zm0-6.212a2.824,2.824,0,1,0,2.824,2.824,2.824,2.824,0,0,0-2.824-2.824Z" transform="translate(-706.285 -323.033)" fill="#3f3d56"/>
      <path id="Path_1288" data-name="Path 1288" d="M221.342,262.209H214v-7.342h7.342Zm-6.777-.565h6.212v-6.212h-6.212Z" transform="translate(-214 -203.191)" fill="#3f3d56"/>
      <path id="Path_1289" data-name="Path 1289" d="M608.342,83.209H601V75.867h7.342Zm-6.777-.565h6.212V76.432h-6.212Z" transform="translate(-491.718 -74.738)" fill="#3f3d56"/>
      <rect id="Rectangle_746" data-name="Rectangle 746" width="52.523" height="42.64" transform="translate(33.462 45.921)" fill="#6c63ff"/>
      <rect id="Rectangle_747" data-name="Rectangle 747" width="145.427" height="4.518" transform="translate(33.462 101.551)" fill="#f2f2f2"/>
      <path id="Path_1290" data-name="Path 1290" d="M371.588,267.692H318.5v-43.2h53.088Zm-52.523-.565h51.959V225.052H319.065Z" transform="translate(-288.991 -181.39)" fill="#3f3d56"/>
      <rect id="Rectangle_748" data-name="Rectangle 748" width="50.829" height="4.518" transform="translate(106.882 57.64)" fill="#6c63ff"/>
      <rect id="Rectangle_749" data-name="Rectangle 749" width="72.008" height="4.518" transform="translate(106.882 69.783)" fill="#6c63ff" opacity="0.3"/>
      <path id="Path_1291" data-name="Path 1291" d="M629.894,271.07H578.5v-5.083h51.394Zm-50.829-.565h50.264v-3.953H579.065Z" transform="translate(-475.571 -211.171)" fill="#3f3d56"/>
      <path id="Path_1292" data-name="Path 1292" d="M651.073,314.07H578.5v-5.083h72.573Zm-72.008-.565h71.443v-3.953H579.065Z" transform="translate(-475.571 -242.028)" fill="#3f3d56"/>
      <path id="Path_1293" data-name="Path 1293" d="M464.492,426.57H318.5v-5.083H464.492Zm-145.427-.565H463.927v-3.953H319.065Z" transform="translate(-288.991 -322.76)" fill="#3f3d56"/>
      <rect id="Rectangle_750" data-name="Rectangle 750" width="145.427" height="4.518" transform="translate(33.462 115.67)" fill="#f2f2f2"/>
      <path id="Path_1294" data-name="Path 1294" d="M464.492,476.57H318.5v-5.083H464.492Zm-145.427-.565H463.927v-3.953H319.065Z" transform="translate(-288.991 -358.641)" fill="#3f3d56"/>
      <rect id="Rectangle_751" data-name="Rectangle 751" width="145.427" height="4.518" transform="translate(33.462 129.789)" fill="#f2f2f2"/>
      <path id="Path_1295" data-name="Path 1295" d="M464.492,526.57H318.5v-5.083H464.492Zm-145.427-.565H463.927v-3.953H319.065Z" transform="translate(-288.991 -394.522)" fill="#3f3d56"/>
      <rect id="Rectangle_752" data-name="Rectangle 752" width="145.427" height="4.518" transform="translate(33.462 143.908)" fill="#f2f2f2"/>
      <path id="Path_1296" data-name="Path 1296" d="M464.492,576.57H318.5v-5.083H464.492Zm-145.427-.565H463.927v-3.953H319.065Z" transform="translate(-288.991 -430.403)" fill="#3f3d56"/>
      <rect id="Rectangle_753" data-name="Rectangle 753" width="145.427" height="4.518" transform="translate(33.462 158.027)" fill="#f2f2f2"/>
      <path id="Path_1297" data-name="Path 1297" d="M464.492,626.57H318.5v-5.083H464.492Zm-145.427-.565H463.927v-3.953H319.065Z" transform="translate(-288.991 -466.284)" fill="#3f3d56"/>
      <rect id="Rectangle_754" data-name="Rectangle 754" width="145.427" height="4.518" transform="translate(33.462 172.147)" fill="#f2f2f2"/>
      <path id="Path_1298" data-name="Path 1298" d="M464.492,676.57H318.5v-5.083H464.492Zm-145.427-.565H463.927v-3.953H319.065Z" transform="translate(-288.991 -502.164)" fill="#3f3d56"/>
      <path id="Path_1299" data-name="Path 1299" d="M455.465,319.9H289V136.487H455.465Zm-165.9-.565H454.9V137.052H289.565Z" transform="translate(-267.821 -118.239)" fill="#3f3d56"/>
      <path id="Path_1300" data-name="Path 1300" d="M276.328,791.744a.129.129,0,0,0-.028.014c.336-.726.65-1.46.935-2.205.034-.088.065-.178.1-.265,0,.023,0,.045-.006.071-.008.141-.02.282-.031.426-.017.223-.031.449-.034.675,0,.071,0,.138,0,.209a4.134,4.134,0,0,0,.085.819h-.011c-.071.006-.136.008-.2.02a2.764,2.764,0,0,0-.771.22A.165.165,0,0,0,276.328,791.744Z" transform="translate(-258.707 -586.699)" fill="url(#linear-gradient)"/>
      <path id="Path_1301" data-name="Path 1301" d="M270.319,386.695c.03,1.179.43,2.322.492,3.5-3.473.173-6.9-1.512-10.336-1a4.764,4.764,0,0,0,1.777-2.846,11.8,11.8,0,0,0,.339-4.373,1.924,1.924,0,0,0-.043-.242,6.309,6.309,0,0,1-.369-1.846c.117-.6.682-.482,1.192-.447a44.656,44.656,0,0,1,4.635.6c.4.069,4.291,1.041,4.35.939a18.314,18.314,0,0,0-1.685,3.471A6.766,6.766,0,0,0,270.319,386.695Z" transform="translate(-247.352 -292.565)" fill="#a0616a"/>
      <path id="Path_1302" data-name="Path 1302" d="M399.139,373.728a5.078,5.078,0,0,1-1.06,1.069c-.263.216-.534.436-.816.635a3.5,3.5,0,0,1-1.736.706,4.55,4.55,0,0,1-3.1-1.138,2.053,2.053,0,0,1-.3-1.186,5.455,5.455,0,0,1,.285-1.659,9.244,9.244,0,0,1,1.339-2.423,7.134,7.134,0,0,1,2.153-2.153,8.365,8.365,0,0,1,.916-.421c.54-.22,1.078-.443,1.618-.663a.781.781,0,0,1,.294-.078c.434,0,.514.667.268,1.026-.492.721-1.6.922-1.911,1.741a1.241,1.241,0,0,1,1.153.894.632.632,0,0,0,.156.361c.143.114.365.05.527.136.287.153.162.581.192.9a4.235,4.235,0,0,0,.3.814A1.73,1.73,0,0,1,399.139,373.728Z" transform="translate(-341.829 -283.241)" fill="#a0616a"/>
      <path id="Path_1303" data-name="Path 1303" d="M247.432,797.03a1.232,1.232,0,0,1,1.077-.163,39.955,39.955,0,0,0,6.057.49c.254-1.24-.483-2.446-.721-3.689a3.328,3.328,0,0,0-.24-.933,2.138,2.138,0,0,0-1.535-.926c-1.092-.23-2.8-.636-3.408.467A16.554,16.554,0,0,0,247.432,797.03Z" transform="translate(-237.992 -588.318)" fill="#65617d"/>
      <path id="Path_1304" data-name="Path 1304" d="M292.779,779.344a6.393,6.393,0,0,1-2.833.864,9.069,9.069,0,0,0-2.9.663,19.176,19.176,0,0,1-2.244,1.283,4.675,4.675,0,0,1-2.33.037,3.453,3.453,0,0,1-2.4-1.3,4,4,0,0,1-.335-2.434q.107-1.409.209-2.823a1.344,1.344,0,0,1,.175-.682c.665-.97,2.283.406,3.149.4A6.088,6.088,0,0,0,287.1,773.7a1.164,1.164,0,0,1,.3-.225c.391-.175.782.149,1.129.432.039.032.078.065.117.1a7.44,7.44,0,0,0,2.866,1.021,3.1,3.1,0,0,1,2.358,1.752,1.5,1.5,0,0,1,.047.188A2.473,2.473,0,0,1,292.779,779.344Z" transform="translate(-261.145 -575.317)" fill="#3f3d56"/>
      <path id="Path_1305" data-name="Path 1305" d="M292.779,779.344a6.393,6.393,0,0,1-2.833.864,9.069,9.069,0,0,0-2.9.663,19.176,19.176,0,0,1-2.244,1.283,4.675,4.675,0,0,1-2.33.037,3.453,3.453,0,0,1-2.4-1.3,4,4,0,0,1-.335-2.434q.107-1.409.209-2.823a1.344,1.344,0,0,1,.175-.682c.665-.97,2.283.406,3.149.4A6.088,6.088,0,0,0,287.1,773.7a1.164,1.164,0,0,1,.3-.225c.391-.175.782.149,1.129.432.039.032.078.065.117.1a7.44,7.44,0,0,0,2.866,1.021,3.1,3.1,0,0,1,2.358,1.752,1.5,1.5,0,0,1,.047.188A2.473,2.473,0,0,1,292.779,779.344Z" transform="translate(-261.145 -575.317)" fill="#2f2e41"/>
      <path id="Path_1306" data-name="Path 1306" d="M292.779,779.66a6.394,6.394,0,0,1-2.833.864,9.066,9.066,0,0,0-2.9.663,19.167,19.167,0,0,1-2.244,1.283,4.675,4.675,0,0,1-2.33.037,3.847,3.847,0,0,1-2.4-1.618,4,4,0,0,1-.335-2.434q.107-1.409.209-2.823a1.344,1.344,0,0,1,.175-.682c.665-.97,2.283.406,3.149.4A6.088,6.088,0,0,0,287.1,773.7a1.164,1.164,0,0,1,.3-.225c.391-.175.782.149,1.129.432a8.114,8.114,0,0,1-.963,1.991,4.144,4.144,0,0,1-3.021,1.89,9.986,9.986,0,0,0-1.836.082c-.592.158-1.145.765-.935,1.341.205.562.931.685,1.529.717a6.792,6.792,0,0,0,2.492-.175c.486-.162.931-.43,1.4-.626,2.011-.834,4.55-.367,6.211-1.775a3.686,3.686,0,0,1,.507-.389C294.352,777.872,293.55,779.133,292.779,779.66Z" transform="translate(-261.145 -575.317)" fill="#e8eaf2"/>
      <path id="Path_1307" data-name="Path 1307" d="M292.779,779.66a6.394,6.394,0,0,1-2.833.864,9.066,9.066,0,0,0-2.9.663,19.167,19.167,0,0,1-2.244,1.283,4.675,4.675,0,0,1-2.33.037,3.847,3.847,0,0,1-2.4-1.618,4,4,0,0,1-.335-2.434q.107-1.409.209-2.823a1.344,1.344,0,0,1,.175-.682c.665-.97,2.283.406,3.149.4A6.088,6.088,0,0,0,287.1,773.7a1.164,1.164,0,0,1,.3-.225c.391-.175.782.149,1.129.432a8.114,8.114,0,0,1-.963,1.991,4.144,4.144,0,0,1-3.021,1.89,9.986,9.986,0,0,0-1.836.082c-.592.158-1.145.765-.935,1.341.205.562.931.685,1.529.717a6.792,6.792,0,0,0,2.492-.175c.486-.162.931-.43,1.4-.626,2.011-.834,4.55-.367,6.211-1.775a3.686,3.686,0,0,1,.507-.389C294.352,777.872,293.55,779.133,292.779,779.66Z" transform="translate(-261.145 -575.317)" opacity="0.05"/>
      <path id="Path_1308" data-name="Path 1308" d="M248.131,568.393a12.364,12.364,0,0,0,1.695,9.123,17.034,17.034,0,0,1,1.377,2.208,10.038,10.038,0,0,1,.538,1.75l1.526,6.318a17.158,17.158,0,0,1,.7,5.195c-.086,1.22-.394,2.591.358,3.555a2.621,2.621,0,0,1,.454.623,1.577,1.577,0,0,1,.007.821c-.772,4.587-1.345,9.382.05,13.82,1.264,4.022,1.336,8.478,2.411,12.555a2.8,2.8,0,0,0,.668,1.392,2.189,2.189,0,0,0,1,.476,7.389,7.389,0,0,0,4.734-.749c1.038-.481,2.156-1.325,2.067-2.466a5,5,0,0,0-.574-1.518,10.734,10.734,0,0,1-.57-3.138,63.428,63.428,0,0,0-1.729-7.848,18.743,18.743,0,0,1-.518-7.963,69.655,69.655,0,0,1,5.123-15.759,1.9,1.9,0,0,1,.469-.706,4.849,4.849,0,0,0,.664-.453,2,2,0,0,0,.3-.826,8.975,8.975,0,0,1,1.377-2.177c1.162-1.845.794-4.211.75-6.391a44,44,0,0,0-.084-6.352c-.348-2.092-1.546-4.23-3.563-4.886a7.666,7.666,0,0,0-3.124-.148A61.569,61.569,0,0,0,248.131,568.393Z" transform="translate(-238.315 -425.576)" fill="#2f2e41"/>
      <path id="Path_1309" data-name="Path 1309" d="M248.131,568.393a12.364,12.364,0,0,0,1.695,9.123,17.034,17.034,0,0,1,1.377,2.208,10.038,10.038,0,0,1,.538,1.75l1.526,6.318a17.158,17.158,0,0,1,.7,5.195c-.086,1.22-.394,2.591.358,3.555a2.621,2.621,0,0,1,.454.623,1.577,1.577,0,0,1,.007.821c-.772,4.587-1.345,9.382.05,13.82,1.264,4.022,1.336,8.478,2.411,12.555a2.8,2.8,0,0,0,.668,1.392,2.189,2.189,0,0,0,1,.476,7.389,7.389,0,0,0,4.734-.749c1.038-.481,2.156-1.325,2.067-2.466a5,5,0,0,0-.574-1.518,10.734,10.734,0,0,1-.57-3.138,63.428,63.428,0,0,0-1.729-7.848,18.743,18.743,0,0,1-.518-7.963,69.655,69.655,0,0,1,5.123-15.759,1.9,1.9,0,0,1,.469-.706,4.849,4.849,0,0,0,.664-.453,2,2,0,0,0,.3-.826,8.975,8.975,0,0,1,1.377-2.177c1.162-1.845.794-4.211.75-6.391a44,44,0,0,0-.084-6.352c-.348-2.092-1.546-4.23-3.563-4.886a7.666,7.666,0,0,0-3.124-.148A61.569,61.569,0,0,0,248.131,568.393Z" transform="translate(-238.315 -425.576)" opacity="0.1"/>
      <path id="Path_1310" data-name="Path 1310" d="M269.014,584.283a13.242,13.242,0,0,1-.279,2.451q-1.464,8.212-3.121,16.39c-.1.473-.192.946-.32,1.41a11.437,11.437,0,0,1-2.114,4.159c-4.6,5.736-5,14.066-7.5,20.983-.168.469-.337.937-.516,1.4a34.969,34.969,0,0,1-1.54,3.436.982.982,0,0,1-.317.41.941.941,0,0,1-.5.1,14.626,14.626,0,0,1-6.485-1.475,1.343,1.343,0,0,1-.689-.572,1.385,1.385,0,0,1-.073-.659,9.252,9.252,0,0,1,.808-4,8.53,8.53,0,0,1,1.6-1.937,73.462,73.462,0,0,1,1.566-12.82,17.456,17.456,0,0,1,2.335-6.138c.92-1.341,2.24-2.665,2.078-4.283-.071-.711-.369-1.6.209-2.013.253-.184.626-.207.8-.469a.889.889,0,0,0,.112-.4,9.918,9.918,0,0,0-.205-3.319,17.51,17.51,0,0,1-.495-2.164,2.728,2.728,0,0,1,.544-2.091c.03-1.477-.011-3.01.019-4.486a8.319,8.319,0,0,0-.207-2.505c-.112-.387-.283-.756-.369-1.151-.309-1.419.462-3.119-.456-4.244a6.231,6.231,0,0,0-1.473-1.037,5.405,5.405,0,0,1-2.021-2.907,16.042,16.042,0,0,1-.572-3.559,3.662,3.662,0,0,1-.009-.769,1.41,1.41,0,0,1,.1-.384,2.348,2.348,0,0,1,1.734-1.054,56.162,56.162,0,0,1,13.243-1.548c1.65-1.123,2.579-.721,3.278.469a12.3,12.3,0,0,1,.933,2.278c.32.965.339,6.369.65,7.338C270.168,580.385,269,582.96,269.014,584.283Z" transform="translate(-236.642 -428.17)" fill="#2f2e41"/>
      <path id="Path_1311" data-name="Path 1311" d="M222.617,446.112a13.288,13.288,0,0,0,.331,2.544,9.592,9.592,0,0,1-.336,2.22c-.533,2.88.491,5.8,1.532,8.535a4.4,4.4,0,0,1,.364,1.4,14.294,14.294,0,0,1-.628,2.6c-.3,1.855,1.072,3.6,1.1,5.478a11,11,0,0,0-.043,2.582,9.128,9.128,0,0,0,.741,1.561c.439.924.556,1.972.975,2.905.757,1.686,2.382,2.788,3.929,3.8A4.022,4.022,0,0,0,232.9,478.3a3.552,3.552,0,0,0,.4-1.257,32.744,32.744,0,0,0,.31-5.833,35.968,35.968,0,0,0-.267-5.021c-.312-2.119-1-4.161-1.493-6.245a60.354,60.354,0,0,0-1.909-7.865,26.756,26.756,0,0,0-3.573-6.109c-.533-.727-.953-1.766-1.986-1.6A2.167,2.167,0,0,0,222.617,446.112Z" transform="translate(-220.076 -339.169)" fill="#3f3d56"/>
      <path id="Path_1312" data-name="Path 1312" d="M222.617,446.112a13.288,13.288,0,0,0,.331,2.544,9.592,9.592,0,0,1-.336,2.22c-.533,2.88.491,5.8,1.532,8.535a4.4,4.4,0,0,1,.364,1.4,14.294,14.294,0,0,1-.628,2.6c-.3,1.855,1.072,3.6,1.1,5.478a11,11,0,0,0-.043,2.582,9.128,9.128,0,0,0,.741,1.561c.439.924.556,1.972.975,2.905.757,1.686,2.382,2.788,3.929,3.8A4.022,4.022,0,0,0,232.9,478.3a3.552,3.552,0,0,0,.4-1.257,32.744,32.744,0,0,0,.31-5.833,35.968,35.968,0,0,0-.267-5.021c-.312-2.119-1-4.161-1.493-6.245a60.354,60.354,0,0,0-1.909-7.865,26.756,26.756,0,0,0-3.573-6.109c-.533-.727-.953-1.766-1.986-1.6A2.167,2.167,0,0,0,222.617,446.112Z" transform="translate(-220.076 -339.169)" opacity="0.05"/>
      <circle id="Ellipse_1111" data-name="Ellipse 1111" cx="8.02" cy="8.02" r="8.02" transform="translate(13.387 75.861)" fill="#a0616a"/>
      <path id="Path_1313" data-name="Path 1313" d="M249.275,409.545c-.35.4-.819.85-1.337.72a1.826,1.826,0,0,1-.52-.279,7.845,7.845,0,0,0-3.147-.9,46.427,46.427,0,0,1-6.481-1.457,6.611,6.611,0,0,0-1.917-.39,4.665,4.665,0,0,0-3.416,1.97c-.852,1.059-1.455,2.3-2.291,3.371-.6.764-1.3,1.437-1.861,2.229a9.759,9.759,0,0,0-1.343,7.031,28.988,28.988,0,0,0,2.286,6.948,24.142,24.142,0,0,0,1.866,3.763,8.96,8.96,0,0,0,.721,5.586,5.517,5.517,0,0,1,.727,1.66,4.156,4.156,0,0,1-.05,1.218l-.408,2.9c-.124.884-.249,1.768-.41,2.647-.295,1.607-.694,3.352.05,4.806.891,1.742-.045,3.974.189,5.917a29.766,29.766,0,0,1,7.815-1.857,28.063,28.063,0,0,0,5.142-.674c1.038-.3,2.023-.78,3.077-1.021a14.187,14.187,0,0,1,2.595-.265,30.7,30.7,0,0,1,5.759.129c.154.023.342.035.434-.09a.406.406,0,0,0,.058-.227,3.835,3.835,0,0,0-.492-2.042,2.8,2.8,0,0,1-.57-1.339,2.032,2.032,0,0,1,.167-.665l.843-2.248c.712-1.9.373-4.1.742-6.094a35.774,35.774,0,0,0,.554-4.715,5.9,5.9,0,0,0-.79-3.9,4.481,4.481,0,0,1-.617-.857,2.6,2.6,0,0,1-.147-1.025q-.027-4.059.223-8.113c-.711-1.278-1.453-2.585-2.165-3.863a16.5,16.5,0,0,1-2-4.674c-.221-1.1-.214-2.242-.372-3.358a1.466,1.466,0,0,0-.284-.784,1.427,1.427,0,0,0-1.142-.339A5.052,5.052,0,0,0,249.275,409.545Z" transform="translate(-223.201 -312.537)" fill="#3f3d56"/>
      <path id="Path_1314" data-name="Path 1314" d="M310.555,411.811a5.653,5.653,0,0,0,1.689,1.594,5.421,5.421,0,0,0,2.632.4,62.9,62.9,0,0,0,11-1.208,6.871,6.871,0,0,0,1.212-.325,6.38,6.38,0,0,0,1.224-.764,15.665,15.665,0,0,0,3.31-2.888,9.708,9.708,0,0,0,1.962-4.813,7.88,7.88,0,0,0,1.753-3.016,4.606,4.606,0,0,0,.4-1.465c.023-.519-.321-1.063-.225-1.573a4.157,4.157,0,0,1,1.273-2.289.835.835,0,0,0,.3-.4.649.649,0,0,0-.072-.392,3.03,3.03,0,0,0-2.089-1.568,8.966,8.966,0,0,0-2.692-.107,6.288,6.288,0,0,0-.882.234l-.627,1.651a2.136,2.136,0,0,1-.41.753,3.842,3.842,0,0,1-.445.348,2.547,2.547,0,0,0-.882,2.226,2.392,2.392,0,0,0-1.414,2.952,2.818,2.818,0,0,0-2.068,1.82,1.362,1.362,0,0,1-.27.567,1.1,1.1,0,0,1-.722.222c-.709.044-1.328.6-1.971.3a4.006,4.006,0,0,0-2.341-.327,1.76,1.76,0,0,1-.5.044,1.319,1.319,0,0,1-.41-.143,3.277,3.277,0,0,0-.929-.366.87.87,0,0,0-.881.34c-.225-.247-.359-.562-.564-.826a.9.9,0,0,0-.855-.408c.213-.19-.005-.569-.282-.638a3.618,3.618,0,0,0-.853.031c-.742,0-1.311-.677-2.031-.854-.662-.162-1.545.031-1.884-.56-.12-.21-.144-.494-.349-.622a.673.673,0,0,0-.447-.052,4.372,4.372,0,0,0-1.353.411,18.982,18.982,0,0,0,.2,8.29A7.314,7.314,0,0,0,310.555,411.811Z" transform="translate(-281.803 -302.277)" fill="#3f3d56"/>
      <path id="Path_1315" data-name="Path 1315" d="M243.107,404.179a8.112,8.112,0,0,0-2.87-.945,6.047,6.047,0,0,0-1.826-.131c-.565.07-1.106.288-1.674.32a7.459,7.459,0,0,1-2.332-.49,2.738,2.738,0,0,0-2.308.175,1,1,0,0,1-.5.267.879.879,0,0,1-.519-.255,2.959,2.959,0,0,0-3.688.194c-1.47,1.379-1.3,4.073-3.027,5.118-.475.288-1.082.441-1.36.922a3.4,3.4,0,0,1-.234.443,1.2,1.2,0,0,1-.414.3,8.05,8.05,0,0,0-1.42.817,2.031,2.031,0,0,0-.817,1.37,2.582,2.582,0,0,0,.251,1.152,10.814,10.814,0,0,0,10.509,6.72,1.663,1.663,0,0,0,1.1-.344,2.077,2.077,0,0,0,.386-.636c.81-1.7,2.332-2.952,3.3-4.567.576-.962.945-2.039,1.545-2.987a14.378,14.378,0,0,1,3.643-3.529,4.2,4.2,0,0,1,2.57-1.15c.854.036,1.475.082,1.162-.965A3.356,3.356,0,0,0,243.107,404.179Z" transform="translate(-218.387 -309.183)" fill="#3f3d56"/>
      <path id="Path_1316" data-name="Path 1316" d="M243.107,404.179a8.112,8.112,0,0,0-2.87-.945,6.047,6.047,0,0,0-1.826-.131c-.565.07-1.106.288-1.674.32a7.459,7.459,0,0,1-2.332-.49,2.738,2.738,0,0,0-2.308.175,1,1,0,0,1-.5.267.879.879,0,0,1-.519-.255,2.959,2.959,0,0,0-3.688.194c-1.47,1.379-1.3,4.073-3.027,5.118-.475.288-1.082.441-1.36.922a3.4,3.4,0,0,1-.234.443,1.2,1.2,0,0,1-.414.3,8.05,8.05,0,0,0-1.42.817,2.031,2.031,0,0,0-.817,1.37,2.582,2.582,0,0,0,.251,1.152,10.814,10.814,0,0,0,10.509,6.72,1.663,1.663,0,0,0,1.1-.344,2.077,2.077,0,0,0,.386-.636c.81-1.7,2.332-2.952,3.3-4.567.576-.962.945-2.039,1.545-2.987a14.378,14.378,0,0,1,3.643-3.529,4.2,4.2,0,0,1,2.57-1.15c.854.036,1.475.082,1.162-.965A3.356,3.356,0,0,0,243.107,404.179Z" transform="translate(-218.387 -309.183)" opacity="0.05"/>
      <path id="Path_1317" data-name="Path 1317" d="M262.14,803.628a4.476,4.476,0,0,1-2.155.948,38.852,38.852,0,0,1-5.365.663c-.583.043-1.168.089-1.751.134-1.71.13-3.423.261-5.14.268a35.446,35.446,0,0,1-6.321-.546.536.536,0,0,1-.577-.641,30.623,30.623,0,0,1,.777-6.345c.2-.855,1.732,1.063,1.8,1.142a1.753,1.753,0,0,0,1.393.741c1.764.1,3.741-.976,5.142-1.931a6.581,6.581,0,0,1,.952-.59,2.8,2.8,0,0,1,.771-.22,4.655,4.655,0,0,1,2.624.531c1.054.523,1.978,1.274,3.021,1.812a8.492,8.492,0,0,0,2.708.857c.955.132,2.095.194,2.585,1.021a.008.008,0,0,1,0,.007A1.815,1.815,0,0,1,262.14,803.628Z" transform="translate(-233.247 -592.401)" fill="#2f2e41"/>
      <path id="Path_1318" data-name="Path 1318" d="M261.365,803.994a4.476,4.476,0,0,1-2.155.948,38.852,38.852,0,0,1-5.365.663c-.583.043-1.168.089-1.751.134-1.71.13-3.423.261-5.14.268a35.452,35.452,0,0,1-6.321-.546.7.7,0,0,1-.5-.242,2.8,2.8,0,0,1-.392-.716,31.1,31.1,0,0,1,1.094-6.345c.2-.855,1.732,1.063,1.8,1.142a1.753,1.753,0,0,0,1.393.741c1.764.1,3.741-.976,5.142-1.931a6.573,6.573,0,0,1,.952-.59,2.8,2.8,0,0,1,.771-.22c-.227,1.27-2.047,2.8-2.987,3.27-1.9.944-4.159.473-6.28.583a.877.877,0,0,0-.445.108c-.255.168-.27.529-.261.834.017.505.082,1.1.52,1.356a1.5,1.5,0,0,0,.7.147,99.566,99.566,0,0,0,15.66-.549,8.61,8.61,0,0,0,2.551-.568,6.6,6.6,0,0,0,1.479-.952C262.5,802.054,261.944,803.454,261.365,803.994Z" transform="translate(-232.471 -592.45)" fill="#e8eaf2"/>
      <path id="Path_1319" data-name="Path 1319" d="M269.614,347.128c-.03.829.536,2.438-1.015,1.989-.924-.268-1.186-1.363-2.358-1.119s-1.443,1.689-1.84,2.635a5.042,5.042,0,0,1-3.654,2.952,2.2,2.2,0,0,1-1.006,0,2.707,2.707,0,0,1-1.5-1.719,13.482,13.482,0,0,1-.663-1.888,7.966,7.966,0,0,1-.24-1.384v0a6.158,6.158,0,0,1,0-.957,7.771,7.771,0,0,1,2.587-4.9,23.139,23.139,0,0,1,4.691-3.166,6.849,6.849,0,0,1,1.73-.771,5.821,5.821,0,0,1,1.827-.076,6.378,6.378,0,0,1,2.324.546,3.274,3.274,0,0,1,.818.575,2.46,2.46,0,0,1,.708,1.183c.3,1.218-.479,2.315-1.11,3.278A5.858,5.858,0,0,0,269.614,347.128Z" transform="translate(-245.087 -263.334)" fill="#2f2e41"/>
      <path id="Path_1320" data-name="Path 1320" d="M262.628,338.04a7.061,7.061,0,0,1-.475.678,8.025,8.025,0,0,1-1.1,1.136,9.139,9.139,0,0,1-.741.581,11.661,11.661,0,0,1-1.5.894,27.564,27.564,0,0,1-4.79,1.717l-3.2.931c-1.117.844-4.857,3.615-5.485,3.27-.741-.408,3.318-3.282,3.318-3.282l.187.142a2.99,2.99,0,0,1-1.039-1.989,10.008,10.008,0,0,1-.032-4.06,4.806,4.806,0,0,1,2.328-3.2,5.429,5.429,0,0,0,1.579-.89,1.12,1.12,0,0,0,.153-.207.681.681,0,0,0,.06-.11,1.5,1.5,0,0,1,.171-.33c.222-.257.626-.179.963-.138.037,0,.071.009.108.011a1.706,1.706,0,0,0,.181.009c1.2.026,2.369-.644,3.587-.644,1.335,0,2.471.771,3.645,1.3.238.108.462.205.674.3a2.913,2.913,0,0,1,1.838,1.939A2.454,2.454,0,0,1,262.628,338.04Z" transform="translate(-236.426 -258.939)" fill="#3f3d56"/>
      <path id="Path_1321" data-name="Path 1321" d="M257.6,372.816a1.481,1.481,0,0,0,.554.206,1.786,1.786,0,0,0,1.478-.221Z" transform="translate(-245.292 -287.822)" opacity="0.1"/>
    </g>
  </g>
</svg>
