<svg xmlns="http://www.w3.org/2000/svg" width="348.399" height="226.797" viewBox="0 0 348.399 226.797">
  <g id="Group_2513" data-name="Group 2513" transform="translate(-531 -185)">
    <path id="Path_2180" data-name="Path 2180" d="M63.3,484.53c5,21.365,15.581,39.834,32.3,48.8,34.758,18.6,113.139,9.007,171.635-2.016a133.951,133.951,0,0,0,76.173-43.543Z" transform="translate(502.115 -175.722)" fill="#9486fb" opacity="0.1"/>
    <path id="Path_2181" data-name="Path 2181" d="M390.042,77.8h-32.1a2.773,2.773,0,0,1,0-5.546h5.549a2.776,2.776,0,0,1,0-5.549h-3.962a2.776,2.776,0,0,1,0-5.549h16.753a44.324,44.324,0,0,0-13.07-3.6c-45.68-5.865-61.989-1.984-67.742,2.016a63.971,63.971,0,0,1-23.479,10.291c-28.184,5.814-80.892,12.811-128.665-2.24-23.744-7.487-41.389,5.16-51.968,26.284H395.614a49.577,49.577,0,0,0-3.769-16.77A2.753,2.753,0,0,1,390.042,77.8Z" transform="translate(482.135 130.443)" fill="#9486fb" opacity="0.1"/>
    <path id="Path_2182" data-name="Path 2182" d="M52.131,329.66a141.412,141.412,0,0,0,1.244,37.274l281.806,10.308a132.412,132.412,0,0,0,19.58-29.863Zm111.458,26.589H158.04a2.773,2.773,0,1,1,0,5.546h-32.1a2.773,2.773,0,1,1,0-5.546h5.549a2.776,2.776,0,0,1,0-5.549H127.53a2.776,2.776,0,0,1,0-5.549h32.1a2.776,2.776,0,0,1,0,5.549h3.962a2.776,2.776,0,0,1,0,5.549Z" transform="translate(510.56 -65.445)" fill="#9486fb" opacity="0.1"/>
    <path id="Path_2183" data-name="Path 2183" d="M369.026,191.84,61.363,199.327A122.753,122.753,0,0,0,54,231.1H363.635a131.61,131.61,0,0,0,4.472-20.251A95.952,95.952,0,0,0,369.026,191.84ZM116.461,216.361h-5.549a2.773,2.773,0,1,1,0,5.546h-32.1a2.773,2.773,0,0,1,0-5.546h5.549a2.776,2.776,0,0,1,0-5.549H80.4a2.776,2.776,0,0,1,0-5.549h32.1a2.776,2.776,0,0,1,0,5.549h3.962a2.776,2.776,0,0,1,0,5.549Z" transform="translate(508.737 32.69)" fill="#9486fb" opacity="0.1"/>
    <g id="undraw_doll_play_evbw" transform="translate(531 192.043)">
      <ellipse id="Ellipse_1155" data-name="Ellipse 1155" cx="174.199" cy="15.251" rx="174.199" ry="15.251" transform="translate(0 189.252)" fill="#f6f6f7"/>
      <path id="Path_2186" data-name="Path 2186" d="M177.98,645.21c-1.017-1.867.136-4.158,1.454-5.822s2.918-3.389,2.884-5.521c-.051-3.05-3.287-4.85-5.873-6.47a28.465,28.465,0,0,1-5.273-4.24,7.727,7.727,0,0,1-1.62-2.169,8.8,8.8,0,0,1-.488-3.853q.173-6.527.647-13.045" transform="translate(-140.903 -442.005)" fill="none" stroke="#3f3d56" stroke-miterlimit="10" stroke-width="4"/>
      <path id="Path_2187" data-name="Path 2187" d="M156.474,594.542a4.745,4.745,0,0,1,2.372-3.9l1.064,2.108-.034-2.552a4.819,4.819,0,0,1,1.569-.19,4.745,4.745,0,1,1-4.975,4.531Z" transform="translate(-132.585 -432.694)" fill="#57b894"/>
      <path id="Path_2188" data-name="Path 2188" d="M180.515,684.88a4.745,4.745,0,1,0-.23-3.83l2.972,2.416L180,682.718a4.745,4.745,0,0,0,.515,2.162Z" transform="translate(-148.142 -490.84)" fill="#57b894"/>
      <path id="Path_2189" data-name="Path 2189" d="M179.633,652.582a4.745,4.745,0,0,0,1.508-9.33l.027,1.959-1.078-2.132h0a4.745,4.745,0,0,0-4.972,4.528,4.69,4.69,0,0,0,.2,1.623A4.745,4.745,0,0,0,179.633,652.582Z" transform="translate(-144.911 -467.776)" fill="#57b894"/>
      <path id="Path_2190" data-name="Path 2190" d="M145.536,629.956a4.745,4.745,0,1,0-2.1-8.9l.84,2.3-1.728-1.661a4.745,4.745,0,0,0-1.535,3.284,4.673,4.673,0,0,0,.119,1.312A4.745,4.745,0,0,0,145.536,629.956Z" transform="translate(-122.361 -452.833)" fill="#57b894"/>
      <path id="Path_2191" data-name="Path 2191" d="M157.329,600.889c1.1.119,2.166.461,3.267.529a3.553,3.553,0,0,0,3.01-1.051,14.71,14.71,0,0,0,.878-1.549,3.389,3.389,0,0,1,1.2-1.129,4.745,4.745,0,1,1-8.893,3.155A3.357,3.357,0,0,1,157.329,600.889Z" transform="translate(-132.799 -437.774)" opacity="0.1"/>
      <path id="Path_2192" data-name="Path 2192" d="M145.8,635.238a4.745,4.745,0,0,0,4.524-6.778,3.515,3.515,0,0,0-.956.956,15.556,15.556,0,0,1-.942,1.573,3.9,3.9,0,0,1-3.155,1.1c-1.149-.051-2.257-.38-3.389-.485-.159,0-.319-.024-.481-.027A4.745,4.745,0,0,0,145.8,635.238Z" transform="translate(-122.624 -458.116)" opacity="0.1"/>
      <path id="Path_2193" data-name="Path 2193" d="M180.021,658.067a4.745,4.745,0,0,0,4.562-6.7,3.891,3.891,0,0,0-1.017.966c-.369.522-.6,1.125-1.017,1.606a4.416,4.416,0,0,1-3.365,1.179c-1.213-.027-2.315-.315-3.484-.407A4.745,4.745,0,0,0,180.021,658.067Z" transform="translate(-145.3 -473.261)" opacity="0.1"/>
      <path id="Path_2194" data-name="Path 2194" d="M181.52,690.811a4.751,4.751,0,1,0,8.673-3.88,4.69,4.69,0,0,0-1.044.932,20.687,20.687,0,0,1-1.274,1.695,5.924,5.924,0,0,1-3.942,1.386A20.342,20.342,0,0,1,181.52,690.811Z" transform="translate(-149.147 -496.77)" opacity="0.1"/>
      <path id="Path_2195" data-name="Path 2195" d="M189.317,715.114s-3.755-.115-4.887-.922-5.761-1.766-6.053-.474-5.643,6.439-1.406,6.46,9.849-.658,10.981-1.356S189.317,715.114,189.317,715.114Z" transform="translate(-145.065 -514.061)" fill="#656380"/>
      <path id="Path_2196" data-name="Path 2196" d="M176.923,723.666c4.24.034,9.849-.678,10.977-1.356.861-.525,1.2-2.4,1.318-3.27h.125s-.237,3.03-1.356,3.728-6.741,1.379-10.981,1.356c-1.223,0-1.644-.444-1.62-1.088C175.547,723.432,176.012,723.656,176.923,723.666Z" transform="translate(-145.093 -517.997)" opacity="0.2"/>
      <path id="Path_2197" data-name="Path 2197" d="M682.942,348.416a18.8,18.8,0,0,1,6.687,12.086c.217,1.356.319,2.766.539,4.141a24.123,24.123,0,0,0,8.225,14.505,4.406,4.406,0,0,1-4.114-.112,28.034,28.034,0,0,0,5.178,10.588,21.609,21.609,0,0,1-7.236-5.938,18.213,18.213,0,0,0,3.68,13.926,14.553,14.553,0,0,1-7.761-9.2l3.233,8.527c-2.034-.58-3.491-2.3-4.66-4.067a33.016,33.016,0,0,1-5.277-22.165c.4-3.264,1.291-6.47,1.437-9.754s-.59-6.812-2.942-9.113a10.512,10.512,0,0,0-6.693-2.711c-1.532-.108-5.5,1.115-4-1.644C671.538,343.275,680.268,346.373,682.942,348.416Z" transform="translate(-471.354 -270.981)" fill="#3f3d56"/>
      <path id="Path_2198" data-name="Path 2198" d="M674.06,344.5,676,349.137c.847.678,1.288-.651,1.586-.363a7.884,7.884,0,0,1,1.017,1.264l.105-.058-2.843-6.351C674.884,342.772,674.4,343.989,674.06,344.5Z" transform="translate(-474.761 -269.62)" fill="#9486fb"/>
      <ellipse id="Ellipse_1156" data-name="Ellipse 1156" cx="20.833" cy="20.05" rx="20.833" ry="20.05" transform="translate(167.787 71.756)" fill="#3f3d56"/>
      <path id="Path_2199" data-name="Path 2199" d="M497.3,690.963c-4.179-.308-8.473-.607-12.465.7-1.481.488-2.989,1.2-4.528.942-1.627-.275-2.86-1.576-3.965-2.8a10.737,10.737,0,0,1-2.85-4.494,6.175,6.175,0,0,1,.5-4,1.647,1.647,0,0,1,.376-.556,1.832,1.832,0,0,1,1.3-.288c3.918.166,7.859,1.132,11.72.447,2.257-.4,6.71-2.061,8.029.793C495.97,682.89,495.038,690.8,497.3,690.963Z" transform="translate(-342.078 -492.235)" fill="#575a89"/>
      <path id="Path_2200" data-name="Path 2200" d="M371,627.552a115.762,115.762,0,0,0-15.163,5.7L344.8,637.994l3.264,8.08c.281.678-.251.637.427.942a5.886,5.886,0,0,0,3.26.512c7.439-2.843,16-1.217,23.48-3.945,2.755-1.017,5.331-2.593,8.229-3.05,3.389-.546,6.978.5,10.259-.532a1.7,1.7,0,0,0,.908-.552,1.715,1.715,0,0,0,.19-1.091,18.152,18.152,0,0,0-2.593-7.819c-.9-1.586-2.332-4.745-4.118-5.517-2.017-.864-5.955.4-8.056.712a77.573,77.573,0,0,0-9.045,1.82Z" transform="translate(-257.09 -455.645)" fill="#ffc1c7"/>
      <path id="Path_2201" data-name="Path 2201" d="M319.8,672.63c-4.1.851-8.324,1.755-11.787,4.111-1.291.878-2.542,1.979-4.094,2.152-1.64.183-3.182-.725-4.582-1.6a10.706,10.706,0,0,1-3.979-3.535,6.192,6.192,0,0,1-.62-3.989,1.664,1.664,0,0,1,.207-.634,1.817,1.817,0,0,1,1.173-.634,68.5,68.5,0,0,0,12.492-4.3c2.061-1.017,4.779-2.332,6.832.047C316.294,665.235,317.575,673.108,319.8,672.63Z" transform="translate(-223.931 -480.89)" fill="#575a89"/>
      <path id="Path_2202" data-name="Path 2202" d="M621.346,450.795a6.471,6.471,0,0,0-.322,2.474v6.256a7.822,7.822,0,0,0,.315,2.664,6.911,6.911,0,0,0,2.135,2.711,29.319,29.319,0,0,0,9.628,5.551,10.272,10.272,0,0,0,6.121.58,10.487,10.487,0,0,0,3.176-1.722,35.9,35.9,0,0,0,7.026-6.761c2.033-2.6,3.8-5.955,2.782-9.1a11.069,11.069,0,0,1-8.235-7.395,10.477,10.477,0,0,0-1.4-3.613c-1.749-2.162-5.138-1.556-7.795-.746-2.579.783-7.06,1.237-8.971,3.2-.756.776-1.044,2.05-1.783,2.9C623.138,448.826,621.888,449.47,621.346,450.795Z" transform="translate(-439.69 -334.154)" fill="#ffc1c7"/>
      <path id="Path_2203" data-name="Path 2203" d="M621.346,450.795a6.471,6.471,0,0,0-.322,2.474v6.256a7.822,7.822,0,0,0,.315,2.664,6.911,6.911,0,0,0,2.135,2.711,29.319,29.319,0,0,0,9.628,5.551,10.272,10.272,0,0,0,6.121.58,10.487,10.487,0,0,0,3.176-1.722,35.9,35.9,0,0,0,7.026-6.761c2.033-2.6,3.8-5.955,2.782-9.1a11.069,11.069,0,0,1-8.235-7.395,10.477,10.477,0,0,0-1.4-3.613c-1.749-2.162-5.138-1.556-7.795-.746-2.579.783-7.06,1.237-8.971,3.2-.756.776-1.044,2.05-1.783,2.9C623.138,448.826,621.888,449.47,621.346,450.795Z" transform="translate(-439.69 -334.154)" opacity="0.1"/>
      <circle id="Ellipse_1157" data-name="Ellipse 1157" cx="16.8" cy="16.8" r="16.8" transform="translate(177.084 82.845)" fill="#ffc1c7"/>
      <path id="Path_2204" data-name="Path 2204" d="M751.621,534.948c.874,1.247,1.634,2.572,2.545,3.792a37.228,37.228,0,0,0,6.778,6.439l13.868,11.1c3.87,3.1,7.958,6.3,12.834,7.2,1.664.308,3.633.22,4.7-1.088,1.247-1.535.512-3.955-.942-5.294s-3.413-1.939-5.206-2.769c-7.578-3.521-12.167-11.184-17.5-17.623-4.687-5.65-10.194-10.557-15.305-15.824-5.422-5.6-9.713-12.1-14.888-17.827-2.474,2.061-5.294,6.243-5.85,9.489-.5,2.9,1.162,5.026,3.05,7.043C740.722,525,747.344,528.861,751.621,534.948Z" transform="translate(-513.439 -375.215)" fill="#ffc1c7"/>
      <path id="Path_2205" data-name="Path 2205" d="M737.456,480.2c-.061,4.789-4.131,8.6-5.179,13.268a15.7,15.7,0,0,1-.549,2.277,7.929,7.929,0,0,1-2.122,2.762,10.564,10.564,0,0,1-4.928,2.925c-.227.044.678-15.7,1-17.162C726.662,479.539,733.511,480.624,737.456,480.2Z" transform="translate(-508.201 -360.102)" fill="#ff6584"/>
      <path id="Path_2206" data-name="Path 2206" d="M516.7,465.76a20.274,20.274,0,0,0,1.325,8.3,9.776,9.776,0,0,0,5.907,5.677,14.857,14.857,0,0,0,4.436.4,11.444,11.444,0,0,0,3.565-.444c2.281-.786,3.857-2.908,4.772-5.138s1.3-4.636,2.057-6.924c.393-1.2,1.122-2.552,2.372-2.664a3.568,3.568,0,0,1,2.189.847l6.778,4.592c1.356,7.744-.034,15.8-2.843,23.141a35.157,35.157,0,0,0-2.257,6.68c-.79,4.779,1.213,9.517,2.83,14.085,1.179,3.328,2.169,6.721,3.162,10.11l2.5,8.544c.58,1.989,1.166,4.067.739,6.1s-2.24,3.928-4.3,3.691c-.573-.064-1.193-.278-1.695,0-1.223.678.139,2.518.027,3.918-.142,1.81-2.593,2.2-4.406,2.159-9.008-.2-17.9,1.742-26.831,2.925s-18.267,1.566-26.7-1.6a66.466,66.466,0,0,1-10.272-5.3c-6.287-3.728-12.933-7.822-16.02-14.444-1.356-2.9-1.942-6.148-3.67-8.835-.949-1.484-2.261-2.837-2.545-4.575-.4-2.447,1.478-4.8,3.728-5.826s4.823-1.068,7.3-1.193,5.084-.4,7.117-1.81c2.213-1.515,3.569-4.2,6.029-5.273a21.953,21.953,0,0,1,3.321-.837,15.773,15.773,0,0,0,4.267-1.915,31.452,31.452,0,0,0,14.377-30.814,24.563,24.563,0,0,1-.339-3.592,1.081,1.081,0,0,1,.115-.6.949.949,0,0,1,.488-.322c1.566-.576,3.342-.268,4.928-.786,1.2-.393,2.2-1.23,3.359-1.739s2.677-.607,3.528.339C516.819,463.482,516.72,464.6,516.7,465.76Z" transform="translate(-331.774 -348.018)" fill="#ff6584"/>
      <path id="Path_2207" data-name="Path 2207" d="M611.086,378.51c-1.2-4.27-6.629-6.812-7.429-11.154a7.5,7.5,0,0,1,2.233-6.324,20.686,20.686,0,0,1,5.9-3.962c3.145-1.583,6.578-3.05,10.167-2.728,3.7.339,8.429.993,11.3,3.267,2.033,1.606,2.6,4.948,3.223,7.348a6.036,6.036,0,0,1-2.511,6.439c-2.372,1.579-5.578,1.464-8.53,1.474s-6.246.373-8.066,2.511c-1,1.169-1.379,2.691-2.1,4.026s-2.054,2.6-3.664,2.464Z" transform="translate(-428.157 -276.87)" fill="#3f3d56"/>
      <path id="Path_2208" data-name="Path 2208" d="M538.18,509.847a20.785,20.785,0,0,0-2.711,5.484,11.719,11.719,0,0,0,1.732,9.306,15.872,15.872,0,0,0,7.612,5.85c1.206.461,2.457.8,3.65,1.295,5.3,2.2,9.235,7.385,14.882,8.429a4.212,4.212,0,0,0,2.4-.115c1.8-.766,2.125-3.138,2.179-5.084a6.033,6.033,0,0,0-.386-2.871,5.114,5.114,0,0,0-1.556-1.695c-4.04-3.094-9.208-4.27-13.634-6.778-2.078-1.173-4.148-2.911-4.426-5.28-.3-2.593,1.617-4.84,3.142-6.961,3.748-5.216,6.934-13.655,5.135-20.148-2.535-9.151-8.778,3.769-10.445,6.439Q541.973,503.777,538.18,509.847Z" transform="translate(-382.919 -365.29)" fill="#ffc1c7"/>
      <path id="Path_2209" data-name="Path 2209" d="M567.316,475.238a36.059,36.059,0,0,0-2.44,3.681,15.39,15.39,0,0,1-4.406,4.324c1.952-.2,4.158-.339,5.612.986,1.23,1.108,1.515,2.9,2.315,4.352a5.355,5.355,0,0,0,2.8,2.5,3.891,3.891,0,0,0,3.653-.495c1.569-1.22,1.742-3.487,1.783-5.477l.071-3.579a5.628,5.628,0,0,0-.854-3.806,7.929,7.929,0,0,0-2.006-1.4C571.156,474.669,570.342,471.764,567.316,475.238Z" transform="translate(-399.668 -355.744)" fill="#ff6584"/>
      <path id="Path_2210" data-name="Path 2210" d="M601.549,407.3c.458-1.891-.824-3.857-.481-5.761a3.531,3.531,0,0,1,1.61-2.349c.471-.288,1.017-.461,1.495-.725a4.5,4.5,0,0,0,1.9-5.541,7.767,7.767,0,0,0-3.82-3.43c-1.644-.857-3.647-1.573-5.287-.712-1.993,1.047-2.274,3.728-2.3,5.992a18.061,18.061,0,0,0,.5,5.5,14.786,14.786,0,0,0,2.949,5.172C598.343,405.7,601.241,408.593,601.549,407.3Z" transform="translate(-422.266 -299.409)" fill="#3f3d56"/>
      <path id="Path_2211" data-name="Path 2211" d="M558.906,432.511c-1.528,4.623-6.778,6.544-10.452,9.828a4.8,4.8,0,0,0,.274-1.63c0-1.356-.339-2.711.047-4.013a15.353,15.353,0,0,1-7.795,4.989L539.5,426.729a17.328,17.328,0,0,1-9.7,10.672c4.209-7.541,5.49-16.3,6.846-24.832a61.709,61.709,0,0,1,1.41-7.117,32.027,32.027,0,0,1,3.826-8.574,20.564,20.564,0,0,1,3.728-4.406c1.454-1.22,3.1-2.067,4.7-1.769h0c2.772.522,1.657,1.881,0,3.128-1.315.983-2.976,1.9-3.369,2.294a4,4,0,0,0-.973,1.6c-.637,1.942.047,4.406.881,6.412a92.167,92.167,0,0,0,7.754,14.783,40.281,40.281,0,0,1,3.728,6.382A10.336,10.336,0,0,1,558.906,432.511Z" transform="translate(-379.392 -300.897)" fill="#3f3d56"/>
      <path id="Path_2212" data-name="Path 2212" d="M578.44,391.755l.447,5.006c-.437.983-1.44.024-1.569.42a7.766,7.766,0,0,0-.339,1.6h-.119l-.451-6.944C576.908,390.61,577.9,391.467,578.44,391.755Z" transform="translate(-410.205 -301.261)" fill="#9486fb"/>
      <circle id="Ellipse_1158" data-name="Ellipse 1158" cx="3.294" cy="3.294" r="3.294" transform="translate(269.372 158.791)" fill="#3f3d56"/>
      <path id="Path_2213" data-name="Path 2213" d="M874.537,675.611a17.594,17.594,0,0,1-.722,7.141,5.28,5.28,0,0,1-.474,1.254,13.266,13.266,0,0,1-.807,1.088,9.486,9.486,0,0,0-1.179,2.549,71.624,71.624,0,0,0-2.1,7.493.512.512,0,0,0,0,.319c.078.183.339.21.522.207h2.586c.095-.176-.078-.369-.186-.539-.373-.573,0-1.315.308-1.915A20.377,20.377,0,0,0,874.3,688.6a12.421,12.421,0,0,1,.61-2,20.007,20.007,0,0,1,1.332-2.159,18.277,18.277,0,0,0,1.264-2.667,17.18,17.18,0,0,0,1.247-3.911A15.589,15.589,0,0,0,878.73,674a.245.245,0,0,0-.281-.278l-3.47-.176c-.715-.037-.885-.193-.776.508C874.283,674.57,874.463,675.082,874.537,675.611Z" transform="translate(-603.783 -487.897)" fill="#575a89"/>
      <path id="Path_2214" data-name="Path 2214" d="M874.537,675.611a17.594,17.594,0,0,1-.722,7.141,5.28,5.28,0,0,1-.474,1.254,13.266,13.266,0,0,1-.807,1.088,9.486,9.486,0,0,0-1.179,2.549,71.624,71.624,0,0,0-2.1,7.493.512.512,0,0,0,0,.319c.078.183.339.21.522.207h2.586c.095-.176-.078-.369-.186-.539-.373-.573,0-1.315.308-1.915A20.377,20.377,0,0,0,874.3,688.6a12.421,12.421,0,0,1,.61-2,20.007,20.007,0,0,1,1.332-2.159,18.277,18.277,0,0,0,1.264-2.667,17.18,17.18,0,0,0,1.247-3.911A15.589,15.589,0,0,0,878.73,674a.245.245,0,0,0-.281-.278l-3.47-.176c-.715-.037-.885-.193-.776.508C874.283,674.57,874.463,675.082,874.537,675.611Z" transform="translate(-603.783 -487.897)" opacity="0.1"/>
      <path id="Path_2215" data-name="Path 2215" d="M884.472,662.091c-.7,1.017-1.447,2.183-1.21,3.389a4.794,4.794,0,0,0,1.542,2.3c2.647,2.657,5.253,5.612,6.155,9.256.23.942.339,1.911.542,2.86a31.29,31.29,0,0,0,1.661,5.006l1.728,4.369a2.613,2.613,0,0,0,2.494-1.654,1.081,1.081,0,0,1-.654-.424,8.015,8.015,0,0,1-1.078-3.576c-.207-1.376-.488-2.738-.769-4.1L893.65,673.5c-.142-.7-.285-1.393-.471-2.081-.722-2.654-2.088-5.162-2.3-7.907a1.843,1.843,0,0,0-.339-1.146,1.694,1.694,0,0,0-1.186-.393A15.415,15.415,0,0,0,884.472,662.091Z" transform="translate(-613.033 -480.18)" fill="#575a89"/>
      <path id="Path_2216" data-name="Path 2216" d="M869.079,736.178a2.529,2.529,0,0,0-.573-.075,1.19,1.19,0,0,0-.935.512,2.288,2.288,0,0,0-.251.556l-.251.715a.79.79,0,0,0-.034.647.678.678,0,0,0,.339.261,6.262,6.262,0,0,0,1.945.339c.641.064,1.274.176,1.9.295.217.041.434.081.654.105a8.018,8.018,0,0,0,1.481-.044l.508-.051a1.772,1.772,0,0,0,.5-.091.641.641,0,0,0,.369-.339.6.6,0,0,0-.471-.742c-.136-.027-.275,0-.41-.03a1.872,1.872,0,0,1-.444-.136,8.6,8.6,0,0,1-1.878-.915c-.159-.112-.339-.268-.308-.461a1.031,1.031,0,0,1,.081-.237.877.877,0,0,0,0-.617c-.034-.085-.091-.173-.18-.183-.244-.031-.214.322-.251.461a.25.25,0,0,1-.308.186A13.83,13.83,0,0,1,869.079,736.178Z" transform="translate(-602.3 -529.001)" fill="#3f3d56"/>
      <path id="Path_2217" data-name="Path 2217" d="M916.084,738.053a1.633,1.633,0,0,0,.339.993.8.8,0,0,0,.251.2.987.987,0,0,0,.454.071,3.6,3.6,0,0,0,1.281-.258,4.345,4.345,0,0,1,.441-.166,5.625,5.625,0,0,1,.576-.085,14.862,14.862,0,0,0,2.169-.786,5.258,5.258,0,0,0,.641-.21,2.985,2.985,0,0,0,.759-.593,1.951,1.951,0,0,0,.339-.417,1.853,1.853,0,0,0,.149-.84.238.238,0,0,0-.024-.129.17.17,0,0,0-.081-.064,1.183,1.183,0,0,0-.735,0,13.033,13.033,0,0,1-2.711.1.555.555,0,0,1-.258-.051.574.574,0,0,1-.163-.186l-.339-.552c-.1-.159-.254-.339-.434-.288a.339.339,0,0,0-.193.369,1.959,1.959,0,0,1,.02.444.6.6,0,0,1-.295.383,1.811,1.811,0,0,1-.461.18,3.5,3.5,0,0,0-1.495.678C916.05,737.1,916.067,737.7,916.084,738.053Z" transform="translate(-634.755 -528.406)" fill="#3f3d56"/>
      <path id="Path_2218" data-name="Path 2218" d="M908.667,628.745a2.092,2.092,0,0,0,.505-.546,2.248,2.248,0,0,0,.214-.756l.146-.915a2.748,2.748,0,0,1,.508-1.423.958.958,0,0,1,1.356-.142,1.2,1.2,0,0,1,.247.613,4.446,4.446,0,0,1-1.091,3.687c-.413.454-.918.813-1.356,1.244-.383.369-.712.79-1.064,1.193a14.738,14.738,0,0,1-2.9,2.532,13.183,13.183,0,0,0,0-2.1c-.075-.495-.275-.759.2-1.081A35.608,35.608,0,0,0,908.667,628.745Z" transform="translate(-627.517 -455.655)" fill="#fbbebe"/>
      <path id="Path_2219" data-name="Path 2219" d="M886.9,613.869a1.7,1.7,0,0,1-.641,1.278q1.725.6,3.389,1.328a1.187,1.187,0,0,1-.291-.823,4.161,4.161,0,0,1,.637-2.223.529.529,0,0,0,.1-.292c0-.217-.271-.319-.485-.366a12.11,12.11,0,0,0-2.2-.319c-.319,0-.678-.112-.624.295A4.468,4.468,0,0,1,886.9,613.869Z" transform="translate(-615.044 -447.524)" fill="#fbbebe"/>
      <circle id="Ellipse_1159" data-name="Ellipse 1159" cx="2.694" cy="2.694" r="2.694" transform="translate(271.385 161.221)" fill="#fbbebe"/>
      <path id="Path_2220" data-name="Path 2220" d="M889.764,622.629a3.263,3.263,0,0,0-.339-.573,11.842,11.842,0,0,0-1.617-1.983,10.2,10.2,0,0,0-1.535-1.125,3.415,3.415,0,0,0-.963-.464,3.738,3.738,0,0,0-.613-.085l-.7-.054a.572.572,0,0,0-.186,0,.393.393,0,0,0-.234.474,1.149,1.149,0,0,0,.312.491c.031,1.427-.6,2.837-.678,4.26-.149,2.494,1.356,4.813,1.495,7.307a.862.862,0,0,1-.034.339c-.02.051-.051.1-.075.149a1.411,1.411,0,0,0-.085.5,2.562,2.562,0,0,1-.769,1.6,1.131,1.131,0,0,0,.427.339,7.546,7.546,0,0,0,.956.227,7.456,7.456,0,0,0,2.5.427,2.235,2.235,0,0,0,.193-.725c.119-.075.257.085.274.224s0,.305.088.407a.413.413,0,0,0,.339.068,14.714,14.714,0,0,0,1.518-.356,2.87,2.87,0,0,1,1.542,0,.407.407,0,0,0-.024-.451,2.037,2.037,0,0,1-.241-.413.915.915,0,0,1-.031-.271,11.56,11.56,0,0,0,0-2.372c-.047-.227-.119-.447-.166-.678a5.951,5.951,0,0,1-.064-1.356c0-.458-.044-.939-.051-1.4a5.223,5.223,0,0,0-.037-.566c-.03-.2-.091-.386-.108-.586-.051-.5.152-1.017.122-1.5C890.954,623.741,890.066,623.324,889.764,622.629Z" transform="translate(-613.021 -451.424)" fill="#9486fb"/>
      <path id="Path_2221" data-name="Path 2221" d="M877.547,629.808a29.259,29.259,0,0,0-1.288,5.392l-.739,4.28a20.446,20.446,0,0,0-.41,3.653,3.882,3.882,0,0,1-.071,1.017,5.371,5.371,0,0,1-.63,1.193,3.952,3.952,0,0,0-.427,2.667c.078.383.285.817.678.861a.932.932,0,0,0,.783-.481,6.1,6.1,0,0,0,.824-2.033,45.9,45.9,0,0,0,1.281-7.117,6.687,6.687,0,0,1,.125-.9,6.425,6.425,0,0,1,.312-.9l.847-2.1a33.509,33.509,0,0,1,2.2-4.745c-.885-.254-1.806-.552-2.691-.807A2.569,2.569,0,0,0,877.547,629.808Z" transform="translate(-606.88 -458.979)" fill="#fbbebe"/>
      <path id="Path_2222" data-name="Path 2222" d="M884.824,629.768a10.06,10.06,0,0,0-1.891-.108.407.407,0,0,1-.254-.068c-.129-.108-.075-.315,0-.471l.3-.735a1.062,1.062,0,0,1,.247-.407,1.017,1.017,0,0,1,.58-.2,5.172,5.172,0,0,1,2.033.078,2.406,2.406,0,0,1,1.556,1.2.824.824,0,0,1,.017.807c-.241.339-.779.729-1.179.539A7.227,7.227,0,0,0,884.824,629.768Z" transform="translate(-612.625 -457.624)" fill="#9486fb"/>
      <path id="Path_2223" data-name="Path 2223" d="M882.338,593.469a2.752,2.752,0,0,0-1.5.43,3.294,3.294,0,0,0-3.233-.756,1.884,1.884,0,1,0-2.179,2.179,3.257,3.257,0,0,0-.146.969,3.294,3.294,0,0,0,6.47.881,2.807,2.807,0,0,0,.59.061,1.933,1.933,0,1,0,0-3.765Z" transform="translate(-606.848 -433.736)" fill="#3f3d56"/>
      <path id="Path_2224" data-name="Path 2224" d="M898.257,604.012a2.778,2.778,0,0,1-.59-.061,3.271,3.271,0,0,1-.437.949,3,3,0,0,0,.556.054,2.22,2.22,0,0,0,2.339-1.695A2.586,2.586,0,0,1,898.257,604.012Z" transform="translate(-622.296 -441.456)" opacity="0.1"/>
      <path id="Path_2225" data-name="Path 2225" d="M879.05,599.826a3.294,3.294,0,0,1-3.148-4.263,1.884,1.884,0,0,1-1.559-1.854,2.253,2.253,0,0,1,.031-.339,1.884,1.884,0,0,0,1.057,3.135,3.257,3.257,0,0,0-.146.969,3.294,3.294,0,0,0,6.439.983A3.291,3.291,0,0,1,879.05,599.826Z" transform="translate(-606.855 -434.918)" opacity="0.1"/>
    </g>
  </g>
</svg>
